<?xml version="1.0" encoding="utf-8"?>
<svg viewBox="0 0 2000 2000" xmlns="http://www.w3.org/2000/svg">
  <rect width="2000" height="2000" fill="#f8f5f0" transform="matrix(1, 0, 0, 1, 1.4210854715202004e-14, 0)"/>
  <g transform="matrix(0.7500000000000001, 0, 0, 0.7500000000000001, 250.00000000000003, 550)">
    <svg viewBox="0 0 396 239" data-background-color="#f8f5f0" preserveAspectRatio="xMidYMid meet" height="1207" width="2000" xmlns="http://www.w3.org/2000/svg">
      <g id="tight-bounds" transform="matrix(1,0,0,1,0.2400000000000091,0.023825684945848025)">
        <svg viewBox="0 0 395.52 238.9523486301083" height="238.9523486301083" width="395.52">
          <g>
            <svg viewBox="0 0 395.52 238.9523486301083" height="238.9523486301083" width="395.52">
              <g>
                <svg viewBox="0 0 395.52 238.9523486301083" height="238.9523486301083" width="395.52">
                  <g transform="matrix(1,0,0,1,0,172.10669165919558)">
                    <svg viewBox="0 0 395.52 66.84565697091273" height="66.84565697091273" width="395.52">
                      <g id="textblocktransform">
                        <svg viewBox="0 0 395.52 66.84565697091273" height="66.84565697091273" width="395.52" id="textblock">
                          <g>
                            <svg viewBox="0 0 395.52 66.84565697091273" height="66.84565697091273" width="395.52">
                              <g transform="matrix(1,0,0,1,0,0)">
                                <svg width="395.52" viewBox="2.45 -37.8 299.07 50.55" height="66.84565697091273" data-palette-color="#1a1a1a">
                                  <path d="M12.9 0.95L12.9 0.95Q10.05 0.95 7.28 0.55 4.5 0.15 2.45-0.8L2.45-0.8Q2.45-2.95 2.78-5.13 3.1-7.3 3.75-9.5L3.75-9.5Q3.9-9.5 4.05-9.53 4.2-9.55 4.4-9.55L4.4-9.55Q5.3-9.55 5.95-9.25L5.95-9.25 6.75-2.6Q7.7-2.4 9.08-2.13 10.45-1.85 12.15-1.85L12.15-1.85Q13.95-1.85 15.85-2.3 17.75-2.75 19.05-3.93 20.35-5.1 20.35-7.3L20.35-7.3Q20.35-8.6 20.08-9.65 19.8-10.7 18.85-11.7 17.9-12.7 15.95-13.83 14-14.95 10.65-16.4L10.65-16.4Q7.05-18 5.33-19.6 3.6-21.2 3.1-22.98 2.6-24.75 2.6-26.8L2.6-26.8Q2.6-29.95 4.42-31.93 6.25-33.9 9.2-34.85 12.15-35.8 15.45-35.8L15.45-35.8Q17.65-35.8 19.85-35.43 22.05-35.05 23.95-34.3L23.95-34.3Q24.05-32 23.58-29.93 23.1-27.85 22.4-25.85L22.4-25.85Q22.25-25.8 22.08-25.8 21.9-25.8 21.75-25.8L21.75-25.8Q20.9-25.8 20.2-26.1L20.2-26.1 19.65-32.75Q18.6-33.05 17.45-33.23 16.3-33.4 15.15-33.4L15.15-33.4Q13.2-33.4 11.4-32.83 9.6-32.25 8.47-31 7.35-29.75 7.35-27.65L7.35-27.65Q7.35-26.25 7.85-25.13 8.35-24 9.88-22.93 11.4-21.85 14.5-20.45L14.5-20.45Q18.4-18.75 20.85-17.25 23.3-15.75 24.45-13.8 25.6-11.85 25.6-8.7L25.6-8.7Q25.6-6.25 24.5-4.42 23.4-2.6 21.55-1.43 19.7-0.25 17.45 0.35 15.2 0.95 12.9 0.95ZM36.5-25.1L36.45-23.1 36.7-22.85Q38.7-24.6 40.6-25.3 42.5-26 44.2-26L44.2-26Q47.6-26 49.9-24.18 52.2-22.35 53.4-19.4 54.6-16.45 54.6-13.15L54.6-13.15Q54.6-6.2 51.17-2.63 47.75 0.95 41.8 0.95L41.8 0.95Q40.85 0.95 39.37 0.65 37.9 0.35 36.7-0.15L36.7-0.15 36.7 10 41.05 11Q41.2 11.95 40.8 12.75L40.8 12.75Q39.45 12.65 37.52 12.58 35.6 12.5 34.2 12.5L34.2 12.5Q32.8 12.5 31.15 12.58 29.5 12.65 28.1 12.75L28.1 12.75Q27.95 11.8 28.2 11L28.2 11Q29.05 10.8 29.95 10.58 30.85 10.35 31.7 10L31.7 10 31.7-22 27.6-22.4Q27.45-23.4 27.85-24.15L27.85-24.15Q28.25-24.2 30.1-24.53 31.95-24.85 34.75-25.5L34.75-25.5Q35.3-25.45 35.7-25.35 36.1-25.25 36.5-25.1L36.5-25.1ZM36.7-20.2L36.7-2.95Q37.65-2.3 38.82-1.83 40-1.35 41.7-1.35L41.7-1.35Q45.45-1.35 47.37-4.38 49.3-7.4 49.3-12.85L49.3-12.85Q49.3-18 47.52-20.5 45.75-23 42.7-23L42.7-23Q40.85-23 39.12-22.08 37.4-21.15 36.7-20.2L36.7-20.2ZM63.74-13.5L63.74-12.5Q63.74-7.45 65.77-4.67 67.8-1.9 71.3-1.9L71.3-1.9Q72.84-1.9 73.89-2.08 74.94-2.25 75.97-2.75 77-3.25 78.3-4.15L78.3-4.15Q79.09-3.8 79.19-2.95L79.19-2.95Q77.64-1.15 75.5-0.15 73.34 0.85 71.14 0.85L71.14 0.85Q67.34 0.85 64.5-0.75 61.64-2.35 60.05-5.35 58.45-8.35 58.45-12.5L58.45-12.5Q58.45-16.75 60.12-19.73 61.8-22.7 64.62-24.28 67.44-25.85 70.89-25.85L70.89-25.85Q75.34-25.85 77.47-22.88 79.59-19.9 79.59-15.2L79.59-15.2Q79.59-14.85 79.59-14.55 79.59-14.25 79.55-13.9L79.55-13.9 78.84-13.35 63.74-13.5ZM70.84-23.7L70.84-23.7Q69.39-23.7 67.97-22.8 66.55-21.9 65.44-20.1 64.34-18.3 63.95-15.55L63.95-15.55 74.84-16.15Q74.84-20 74.02-21.85 73.19-23.7 70.84-23.7ZM89.94 0.85L89.94 0.85Q86.94 0.85 84.89-0.73 82.84-2.3 82.84-5.5L82.84-5.5Q82.84-8 84.07-9.6 85.29-11.2 87.37-12.08 89.44-12.95 91.99-13.25 94.54-13.55 97.19-13.5L97.19-13.5 97.24-17.9Q97.29-20.7 96.19-22.23 95.09-23.75 92.84-23.75L92.84-23.75Q91.59-23.75 90.44-23.58 89.29-23.4 88.14-23L88.14-23 87.49-17.7Q87.09-17.5 86.39-17.48 85.69-17.45 85.29-17.5L85.29-17.5Q84.84-19.15 84.54-20.8 84.24-22.45 84.29-24L84.29-24Q86.64-25.1 89.02-25.55 91.39-26 94.19-26L94.19-26Q96.99-26 98.72-25.1 100.44-24.2 101.27-22 102.09-19.8 102.09-15.85L102.09-15.85 102.09-2.45Q102.94-2.05 103.84-1.88 104.74-1.7 105.59-1.45L105.59-1.45Q105.74-0.5 105.34 0.3L105.34 0.3Q104.54 0.45 103.42 0.55 102.29 0.65 101.14 0.65L101.14 0.65Q99.49 0.65 98.29 0.35L98.29 0.35 97.59-2.25 97.39-2.25Q96.14-0.95 94.29-0.05 92.44 0.85 89.94 0.85ZM91.84-1.9L91.84-1.9Q93.24-1.9 94.84-2.78 96.44-3.65 97.19-4.75L97.19-4.75 97.19-11.5Q92.04-11.5 89.94-10.28 87.84-9.05 87.84-6L87.84-6Q87.84-3.95 88.94-2.93 90.04-1.9 91.84-1.9ZM115.49-37.25L115.49-13.85 116.79-13.85 124.79-22.75 121.14-23.5Q121.09-23.7 121.09-24.05L121.09-24.05Q121.09-24.65 121.39-25.25L121.39-25.25Q122.74-25.2 123.92-25.1 125.09-25 126.49-25L126.49-25Q127.94-25 128.87-25.1 129.79-25.2 131.19-25.25L131.19-25.25Q131.24-25.05 131.24-24.88 131.24-24.7 131.24-24.5L131.24-24.5Q131.24-24.05 131.09-23.5L131.09-23.5Q130.29-23.45 129.19-23.13 128.09-22.8 127.34-22.25L127.34-22.25 120.54-14.95 129.79-2.5Q130.24-2.1 131.22-1.85 132.19-1.6 133.14-1.5L133.14-1.5Q133.14-1.35 133.16-1.23 133.19-1.1 133.19-0.95L133.19-0.95Q133.19-0.35 132.89 0.25L132.89 0.25Q131.44 0.15 129.97 0.1 128.49 0.05 126.94 0.05L126.94 0.05Q125.84 0.05 124.72 0.1 123.59 0.15 122.39 0.25L122.39 0.25Q122.34 0.05 122.34-0.13 122.34-0.3 122.34-0.45L122.34-0.45Q122.34-1 122.49-1.5L122.49-1.5 124.94-1.65 117.79-11.85 115.49-11.85 115.49-2.5 118.84-1.5Q118.84-1.35 118.87-1.23 118.89-1.1 118.89-0.95L118.89-0.95Q118.89-0.35 118.59 0.25L118.59 0.25Q117.24 0.15 115.81 0.08 114.39 0 112.99 0L112.99 0Q111.59 0 109.94 0.08 108.29 0.15 106.89 0.25L106.89 0.25Q106.84 0.05 106.84-0.13 106.84-0.3 106.84-0.45L106.84-0.45Q106.84-1 106.99-1.5L106.99-1.5Q107.94-1.75 108.86-1.95 109.79-2.15 110.49-2.5L110.49-2.5 110.49-34.3 106.34-34.7Q106.29-34.85 106.29-35 106.29-35.15 106.29-35.25L106.29-35.25Q106.29-35.85 106.59-36.45L106.59-36.45Q108.39-36.7 110.22-37.05 112.04-37.4 113.59-37.8L113.59-37.8Q114.09-37.75 114.54-37.63 114.99-37.5 115.49-37.25L115.49-37.25ZM140.39-13.5L140.39-12.5Q140.39-7.45 142.41-4.67 144.44-1.9 147.94-1.9L147.94-1.9Q149.49-1.9 150.54-2.08 151.59-2.25 152.61-2.75 153.64-3.25 154.94-4.15L154.94-4.15Q155.74-3.8 155.84-2.95L155.84-2.95Q154.29-1.15 152.14-0.15 149.99 0.85 147.79 0.85L147.79 0.85Q143.99 0.85 141.14-0.75 138.29-2.35 136.69-5.35 135.09-8.35 135.09-12.5L135.09-12.5Q135.09-16.75 136.76-19.73 138.44-22.7 141.26-24.28 144.09-25.85 147.54-25.85L147.54-25.85Q151.99-25.85 154.11-22.88 156.24-19.9 156.24-15.2L156.24-15.2Q156.24-14.85 156.24-14.55 156.24-14.25 156.19-13.9L156.19-13.9 155.49-13.35 140.39-13.5ZM147.49-23.7L147.49-23.7Q146.04-23.7 144.61-22.8 143.19-21.9 142.09-20.1 140.99-18.3 140.59-15.55L140.59-15.55 151.49-16.15Q151.49-20 150.66-21.85 149.84-23.7 147.49-23.7ZM167.99-16.85L167.99-2.5 172.84-1.5Q172.99-0.55 172.59 0.25L172.59 0.25Q171.69 0.2 170.36 0.15 169.04 0.1 167.74 0.05 166.44 0 165.49 0L165.49 0Q164.09 0 162.44 0.08 160.79 0.15 159.39 0.25L159.39 0.25Q159.24-0.7 159.49-1.5L159.49-1.5Q160.44-1.75 161.36-1.95 162.29-2.15 162.99-2.5L162.99-2.5 162.99-22 158.84-22.4Q158.69-23.4 159.09-24.15L159.09-24.15Q160.89-24.4 162.71-24.75 164.54-25.1 166.09-25.5L166.09-25.5Q166.59-25.45 166.91-25.33 167.24-25.2 167.74-24.95L167.74-24.95 167.74-20.4 167.79-20.35Q169.34-22.65 171.26-24.25 173.19-25.85 175.39-25.85L175.39-25.85Q176.24-25.85 177.06-25.73 177.89-25.6 178.69-25.1L178.69-25.1Q178.79-23.05 178.51-21.2 178.24-19.35 177.69-17.6L177.69-17.6Q177.34-17.55 176.59-17.57 175.84-17.6 175.44-17.8L175.44-17.8 174.74-22.8Q172.99-22.8 171.21-21.53 169.44-20.25 167.99-16.85L167.99-16.85ZM190.63-15.75L190.63-2.5 194.48-1.5Q194.63-0.55 194.23 0.25L194.23 0.25Q192.88 0.15 191.21 0.08 189.53 0 188.13 0L188.13 0Q186.73 0 184.71 0.08 182.68 0.15 181.28 0.25L181.28 0.25Q181.13-0.7 181.38-1.5L181.38-1.5Q182.43-1.6 183.43-1.85 184.43-2.1 185.38-2.5L185.38-2.5 185.38-32.5 181.53-33.5Q181.38-34.45 181.78-35.25L181.78-35.25Q183.13-35.2 185.21-35.08 187.28-34.95 188.88-35L188.88-35 193.58-35.3Q200.03-35.65 203.81-33.05 207.58-30.45 207.58-25.6L207.58-25.6Q207.58-22.2 205.83-20.08 204.08-17.95 200.73-16.8L200.73-16.8 200.73-16.6Q201.08-16.4 201.36-15.9 201.63-15.4 201.83-15L201.83-15Q203.83-10.6 205.06-7.9 206.28-5.2 207.11-3.85 207.93-2.5 208.81-2.02 209.68-1.55 210.98-1.55L210.98-1.55 211.58-1.6Q211.83-1.2 211.88-0.8 211.93-0.4 211.88 0L211.88 0Q211.63 0.35 210.93 0.5 210.23 0.65 209.56 0.7 208.88 0.75 208.58 0.75L208.58 0.75Q205.28 0.75 203.13-1.85L203.13-1.85Q202.18-3 201.36-4.85 200.53-6.7 199.43-9.38 198.33-12.05 196.48-15.8L196.48-15.8Q194.83-15.65 193.13-15.65L193.13-15.65Q192.48-15.65 191.86-15.68 191.23-15.7 190.63-15.75L190.63-15.75ZM202.68-25.3L202.68-25.3Q202.68-27.85 201.56-29.55 200.43-31.25 198.53-32.13 196.63-33 194.28-33L194.28-33Q193.43-33 192.53-32.85 191.63-32.7 190.63-32.45L190.63-32.45 190.63-18.05Q191.43-17.85 192.18-17.78 192.93-17.7 193.63-17.7L193.63-17.7Q197.98-17.7 200.33-19.75 202.68-21.8 202.68-25.3ZM219.28-13.5L219.28-12.5Q219.28-7.45 221.31-4.67 223.33-1.9 226.83-1.9L226.83-1.9Q228.38-1.9 229.43-2.08 230.48-2.25 231.51-2.75 232.53-3.25 233.83-4.15L233.83-4.15Q234.63-3.8 234.73-2.95L234.73-2.95Q233.18-1.15 231.03-0.15 228.88 0.85 226.68 0.85L226.68 0.85Q222.88 0.85 220.03-0.75 217.18-2.35 215.58-5.35 213.98-8.35 213.98-12.5L213.98-12.5Q213.98-16.75 215.66-19.73 217.33-22.7 220.16-24.28 222.98-25.85 226.43-25.85L226.43-25.85Q230.88-25.85 233.01-22.88 235.13-19.9 235.13-15.2L235.13-15.2Q235.13-14.85 235.13-14.55 235.13-14.25 235.08-13.9L235.08-13.9 234.38-13.35 219.28-13.5ZM226.38-23.7L226.38-23.7Q224.93-23.7 223.51-22.8 222.08-21.9 220.98-20.1 219.88-18.3 219.48-15.55L219.48-15.55 230.38-16.15Q230.38-20 229.56-21.85 228.73-23.7 226.38-23.7ZM245.48 0.85L245.48 0.85Q242.48 0.85 240.43-0.73 238.38-2.3 238.38-5.5L238.38-5.5Q238.38-8 239.6-9.6 240.83-11.2 242.9-12.08 244.98-12.95 247.53-13.25 250.08-13.55 252.73-13.5L252.73-13.5 252.78-17.9Q252.83-20.7 251.73-22.23 250.63-23.75 248.38-23.75L248.38-23.75Q247.13-23.75 245.98-23.58 244.83-23.4 243.68-23L243.68-23 243.03-17.7Q242.63-17.5 241.93-17.48 241.23-17.45 240.83-17.5L240.83-17.5Q240.38-19.15 240.08-20.8 239.78-22.45 239.83-24L239.83-24Q242.18-25.1 244.55-25.55 246.93-26 249.73-26L249.73-26Q252.53-26 254.25-25.1 255.98-24.2 256.8-22 257.63-19.8 257.63-15.85L257.63-15.85 257.63-2.45Q258.48-2.05 259.38-1.88 260.28-1.7 261.13-1.45L261.13-1.45Q261.28-0.5 260.88 0.3L260.88 0.3Q260.08 0.45 258.95 0.55 257.83 0.65 256.68 0.65L256.68 0.65Q255.03 0.65 253.83 0.35L253.83 0.35 253.13-2.25 252.93-2.25Q251.68-0.95 249.83-0.05 247.98 0.85 245.48 0.85ZM247.38-1.9L247.38-1.9Q248.78-1.9 250.38-2.78 251.98-3.65 252.73-4.75L252.73-4.75 252.73-11.5Q247.58-11.5 245.48-10.28 243.38-9.05 243.38-6L243.38-6Q243.38-3.95 244.48-2.93 245.58-1.9 247.38-1.9ZM281.18-17.7L280.53-23Q279.78-23.35 278.7-23.53 277.63-23.7 276.78-23.7L276.78-23.7Q274.13-23.7 272.38-22.28 270.63-20.85 269.75-18.32 268.88-15.8 268.88-12.5L268.88-12.5Q268.88-8.75 269.9-6.4 270.93-4.05 272.65-2.95 274.38-1.85 276.48-1.85L276.48-1.85Q278.13-1.85 279.9-2.48 281.68-3.1 283.38-4.2L283.38-4.2Q283.78-3.95 283.98-3.63 284.18-3.3 284.28-2.9L284.28-2.9Q282.43-0.95 280.2-0.05 277.98 0.85 275.73 0.85L275.73 0.85Q272.63 0.85 269.82-0.7 267.03-2.25 265.28-5.25 263.53-8.25 263.53-12.5L263.53-12.5Q263.53-16.9 265.3-19.88 267.07-22.85 270.07-24.38 273.07-25.9 276.63-25.9L276.63-25.9Q278.53-25.9 280.48-25.53 282.43-25.15 284.38-24.3L284.38-24.3Q284.38-20.6 283.38-17.5L283.38-17.5Q283.18-17.45 282.98-17.45 282.78-17.45 282.57-17.45L282.57-17.45Q282.23-17.45 281.88-17.5 281.53-17.55 281.18-17.7L281.18-17.7ZM296.02 0.8L296.02 0.8Q294.42 0.8 293.12 0.2 291.82-0.4 291.1-1.88 290.37-3.35 290.37-5.95L290.37-5.95 290.37-21.9 286.87-21.9Q286.57-22.45 286.55-23.03 286.52-23.6 286.62-24.15L286.62-24.15Q288.72-24.15 289.77-24.7 290.82-25.25 291.4-26.6 291.97-27.95 292.62-30.25L292.62-30.25 295.27-30.25 295.27-24.65 300.52-24.65Q301.22-23.2 300.52-21.9L300.52-21.9 295.27-21.9 295.27-7.2Q295.27-4.9 295.5-3.73 295.72-2.55 296.27-2.13 296.82-1.7 297.77-1.7L297.77-1.7Q298.57-1.7 299.32-2 300.07-2.3 300.77-2.7L300.77-2.7Q301.47-2.25 301.52-1.2L301.52-1.2Q300.97-0.55 299.52 0.13 298.07 0.8 296.02 0.8Z" opacity="1" transform="matrix(1,0,0,1,0,0)" fill="#1a1a1a" class="wordmark-text-0" data-fill-palette-color="primary" id="text-0"/>
                                </svg>
                              </g>
                            </svg>
                          </g>
                        </svg>
                      </g>
                    </svg>
                  </g>
                  <g transform="matrix(1,0,0,1,46.21255679999999,0)">
                    <svg viewBox="0 0 303.0948864 156.3260363441304" height="156.3260363441304" width="303.0948864">
                      <g>
                        <svg xmlns="http://www.w3.org/2000/svg" version="1.1" x="0" y="0" viewBox="1.351 24.908 97.298 50.18299999999999" enable-background="new 0 0 100 100" height="156.3260363441304" width="303.0948864" class="icon-icon-0" data-fill-palette-color="accent" id="icon-0">
                          <g fill="#dfa46d" data-fill-palette-color="accent">
                            <g fill="#dfa46d" data-fill-palette-color="accent">
                              <g fill="#dfa46d" data-fill-palette-color="accent">
                                <g fill="#dfa46d" data-fill-palette-color="accent">
                                  <polygon points="12.439,75.091 52.073,55.275 52.073,51.804 5.496,75.091     " fill="#dfa46d" data-fill-palette-color="accent"/>
                                  <g fill="#dfa46d" data-fill-palette-color="accent">
                                    <polygon points="15.913,75.091 44.309,75.091 44.309,60.892      " fill="#dfa46d" data-fill-palette-color="accent"/>
                                    <polygon points="59.835,75.091 88.234,75.091 59.835,60.892      " fill="#dfa46d" data-fill-palette-color="accent"/>
                                  </g>
                                  <g fill="#dfa46d" data-fill-palette-color="accent">
                                    <polygon points="98.649,69.882 98.649,59.566 78.017,59.566      " fill="#dfa46d" data-fill-palette-color="accent"/>
                                    <polygon points="98.647,33.723 78.012,44.041 98.649,44.041      " fill="#dfa46d" data-fill-palette-color="accent"/>
                                  </g>
                                  <polygon points="42.758,56.46 47.416,56.46 47.416,75.091 56.73,75.091 56.73,56.46 98.649,56.46 98.649,47.146 61.386,47.146           " fill="#dfa46d" data-fill-palette-color="accent"/>
                                </g>
                              </g>
                            </g>
                            <g fill="#dfa46d" data-fill-palette-color="accent">
                              <g fill="#dfa46d" data-fill-palette-color="accent">
                                <path d="M1.351 24.908V50.213H35.563V24.908zM29.661 28.294L30.055 29.509H31.333L30.299 30.259 30.695 31.474 29.662 30.724 28.628 31.474 29.024 30.259 27.991 29.509H29.267zM30.693 36.415L29.66 35.664 28.626 36.415 29.022 35.201 27.989 34.449H29.266L29.661 33.234 30.055 34.449H31.333L30.299 35.201zM30.693 41.324L29.66 40.574 28.626 41.324 29.022 40.109 27.989 39.359H29.266L29.661 38.144 30.055 39.359H31.333L30.299 40.109zM27.92 43.705L26.888 42.955 25.855 43.705 26.25 42.49 25.217 41.738H26.493L26.889 40.524 27.284 41.738H28.56L27.528 42.49zM25.03 41.324L23.997 40.574 22.964 41.324 23.36 40.109 22.326 39.359H23.603L23.998 38.144 24.394 39.359H25.67L24.638 40.109zM22.198 43.705L21.165 42.955 20.131 43.705 20.527 42.49 19.494 41.738H20.771L21.166 40.524 21.56 41.738H22.837L21.804 42.49zM19.275 41.324L18.242 40.574 17.209 41.324 17.605 40.109 16.571 39.359H17.848L18.243 38.144 18.638 39.359H19.916L18.882 40.109zM16.474 43.705L15.44 42.955 14.408 43.705 14.803 42.49 13.77 41.738H15.047L15.441 40.524 15.837 41.738H17.113L16.08 42.49zM13.643 41.324L12.609 40.574 11.575 41.324 11.971 40.109 10.938 39.359H12.216L12.61 38.144 13.005 39.359H14.282L13.249 40.109zM10.75 43.705L9.718 42.955 8.685 43.705 9.08 42.49 8.047 41.738H9.324L9.719 40.524 10.114 41.738H11.391L10.358 42.49zM7.918 41.324L6.885 40.574 5.852 41.324 6.247 40.109 5.213 39.359H6.491L6.886 38.144 7.282 39.359H8.559L7.525 40.109zM5.212 34.449H6.49L6.885 33.234 7.281 34.449H8.558L7.524 35.201 7.919 36.415 6.886 35.664 5.853 36.415 6.248 35.201zM27.92 33.917L26.888 33.167 25.855 33.917 26.25 32.702 25.217 31.95H26.493L26.889 30.737 27.284 31.95H28.56L27.528 32.702zM27.92 38.779L26.888 38.027 25.855 38.779 26.25 37.562 25.217 36.812H26.493L26.889 35.597 27.284 36.812H28.56L27.528 37.562zM25.668 34.449L24.636 35.201 25.03 36.415 23.997 35.664 22.964 36.415 23.36 35.201 22.326 34.449H23.603L23.998 33.234 24.394 34.449zM22.198 38.779L21.165 38.027 20.131 38.779 20.527 37.562 19.494 36.812H20.771L21.166 35.597 21.56 36.812H22.837L21.804 37.562zM21.802 32.703L22.198 33.918 21.165 33.168 20.131 33.918 20.527 32.703 19.494 31.951H20.771L21.166 30.738 21.56 31.951H22.837zM19.915 34.449L18.881 35.201 19.276 36.415 18.243 35.664 17.21 36.415 17.606 35.201 16.572 34.449H17.849L18.244 33.234 18.639 34.449zM16.474 38.779L15.44 38.027 14.408 38.779 14.803 37.562 13.77 36.812H15.047L15.441 35.597 15.837 36.812H17.113L16.08 37.562zM16.079 32.703L16.475 33.918 15.441 33.168 14.409 33.918 14.804 32.703 13.771 31.951H15.048L15.442 30.738 15.838 31.951H17.114zM14.282 34.449L13.249 35.201 13.645 36.415 12.611 35.664 11.576 36.415 11.972 35.201 10.939 34.449H12.217L12.611 33.234 13.006 34.449zM10.75 38.779L9.718 38.027 8.685 38.779 9.08 37.562 8.047 36.812H9.324L9.719 35.597 10.114 36.812H11.391L10.358 37.562zM10.356 32.849L10.75 34.064 9.718 33.314 8.685 34.064 9.08 32.849 8.047 32.099H9.324L9.719 30.884 10.114 32.099H11.391zM26.493 27.008L26.889 25.794 27.284 27.008H28.56L27.528 27.759 27.922 28.973 26.89 28.223 25.857 28.973 26.252 27.759 25.219 27.008zM23.997 28.294L24.393 29.509H25.669L24.637 30.259 25.031 31.474 23.998 30.724 22.965 31.474 23.361 30.259 22.327 29.509H23.604zM20.77 27.008L21.165 25.794 21.559 27.008H22.836L21.803 27.759 22.199 28.973 21.166 28.223 20.132 28.973 20.528 27.759 19.495 27.008zM18.242 28.294L18.637 29.509H19.915L18.881 30.259 19.276 31.474 18.243 30.724 17.21 31.474 17.606 30.259 16.572 29.509H17.849zM15.046 27.008L15.44 25.794 15.836 27.008H17.112L16.079 27.759 16.475 28.973 15.441 28.223 14.409 28.973 14.804 27.759 13.771 27.008zM12.609 28.294L13.004 29.509H14.281L13.248 30.259 13.644 31.474 12.61 30.724 11.576 31.474 11.972 30.259 10.939 29.509H12.217zM9.323 27.008L9.718 25.794 10.113 27.008H11.39L10.357 27.759 10.751 28.973 9.719 28.223 8.686 28.973 9.081 27.759 8.048 27.008zM6.885 28.294L7.281 29.509H8.558L7.524 30.259 7.919 31.474 6.886 30.724 5.853 31.474 6.248 30.259 5.214 29.509H6.492zM3.689 27.008L4.084 25.794 4.479 27.008H5.757L4.723 27.759 5.118 28.973 4.085 28.223 3.052 28.973 3.447 27.759 2.415 27.008zM3.689 31.951L4.084 30.738 4.479 31.951H5.757L4.723 32.703 5.118 33.918 4.085 33.168 3.052 33.918 3.447 32.703 2.415 31.951zM3.689 36.812L4.084 35.597 4.479 36.812H5.757L4.723 37.562 5.118 38.779 4.085 38.027 3.05 38.779 3.445 37.562 2.413 36.812zM3.689 41.738L4.084 40.524 4.479 41.738H5.757L4.722 42.49 5.117 43.705 4.084 42.955 3.051 43.705 3.446 42.49 2.414 41.738zM5.117 48.645L4.084 47.894 3.05 48.645 3.445 47.429 2.413 46.68H3.689L4.084 45.464 4.479 46.68H5.757L4.723 47.429zM6.885 45.388L5.852 46.139 6.247 44.924 5.213 44.173H6.491L6.886 42.959 7.282 44.173H8.559L7.525 44.924 7.92 46.139zM10.75 48.645L9.718 47.894 8.685 48.645 9.08 47.429 8.045 46.68H9.322L9.717 45.464 10.112 46.68H11.389L10.356 47.429zM12.609 45.388L11.575 46.139 11.971 44.924 10.938 44.173H12.216L12.61 42.959 13.005 44.173H14.282L13.249 44.924 13.645 46.139zM16.474 48.645L15.44 47.894 14.408 48.645 14.803 47.429 13.77 46.68H15.047L15.441 45.464 15.837 46.68H17.113L16.08 47.429zM18.242 45.299L17.209 46.05 17.605 44.835 16.571 44.083H17.848L18.243 42.869 18.638 44.083H19.916L18.882 44.835 19.277 46.05zM22.198 48.735L21.165 47.984 20.131 48.735 20.527 47.519 19.494 46.769H20.771L21.166 45.554 21.56 46.769H22.837L21.804 47.519zM23.997 45.388L22.964 46.14 23.36 44.924 22.326 44.173H23.603L23.998 42.959 24.394 44.173H25.67L24.638 44.924 25.032 46.14zM27.92 48.645L26.888 47.894 25.855 48.645 26.25 47.429 25.217 46.68H26.493L26.889 45.464 27.284 46.68H28.56L27.528 47.429zM29.661 45.388L28.627 46.14 29.023 44.924 27.99 44.173H29.266L29.662 42.959 30.056 44.173H31.334L30.3 44.924 30.696 46.14zM33.525 48.645L32.491 47.894 31.457 48.645 31.853 47.429 30.82 46.68H32.098L32.492 45.464 32.887 46.68H34.164L33.131 47.429zM33.129 42.49L33.525 43.705 32.491 42.955 31.457 43.705 31.853 42.49 30.82 41.738H32.098L32.492 40.524 32.887 41.738H34.164zM33.129 37.562L33.525 38.779 32.491 38.027 31.457 38.779 31.853 37.562 30.82 36.812H32.098L32.492 35.597 32.887 36.812H34.164zM33.129 32.703L33.525 33.918 32.491 33.168 31.457 33.918 31.853 32.703 30.82 31.951H32.098L32.492 30.738 32.887 31.951H34.164zM33.129 27.759L33.525 28.973 32.491 28.223 31.457 28.973 31.853 27.759 30.82 27.008H32.098L32.492 25.794 32.887 27.008H34.164z" fill="#dfa46d" data-fill-palette-color="accent"/>
                                <polygon points="8.01,68.148 1.351,68.148 1.351,71.478    " fill="#dfa46d" data-fill-palette-color="accent"/>
                                <polygon points="1.351,60.974 1.351,64.589 15.127,64.589 22.357,60.974    " fill="#dfa46d" data-fill-palette-color="accent"/>
                                <polygon points="1.351,53.8 1.351,57.416 29.473,57.416 36.704,53.8    " fill="#dfa46d" data-fill-palette-color="accent"/>
                                <polygon points="35.584,46.597 35.584,50.212 43.88,50.212 51.109,46.597    " fill="#dfa46d" data-fill-palette-color="accent"/>
                                <polygon points="35.579,39.256 35.579,42.872 58.561,42.872 65.791,39.256    " fill="#dfa46d" data-fill-palette-color="accent"/>
                                <polygon points="35.579,32.083 35.579,35.697 72.909,35.697 80.139,32.083    " fill="#dfa46d" data-fill-palette-color="accent"/>
                              </g>
                            </g>
                            <polygon points="87.259,28.522 94.489,24.908 35.579,24.908 35.579,28.522  " fill="#dfa46d" data-fill-palette-color="accent"/>
                          </g>
                        </svg>
                      </g>
                    </svg>
                  </g>
                  <g/>
                </svg>
              </g>
            </svg>
          </g>
          <defs/>
        </svg>
      </g>
    </svg>
  </g>
</svg>