<svg xmlns="http://www.w3.org/2000/svg" viewBox="0 0 2000 1186">
  <svg xmlns="http://www.w3.org/2000/svg" data-background-color="#f8f5f0" transform="translate(-1.21212121 -.57659931)" viewBox="0 0 396 235">
    <svg transform="translate(.24 .11425028)" viewBox="0 0 395.52 234.77149943">
      <svg viewBox="0 0 395.52 234.77149943">
        <svg viewBox="0 0 395.52 234.77149943">
          <svg transform="translate(46.2125568)" viewBox="0 0 303.0948864 156.32603634">
            <svg xmlns="http://www.w3.org/2000/svg" id="icon-0" x="0" y="0" class="icon-icon-0" data-fill-palette-color="accent" version="1.1" viewBox="1.351 24.908 97.298 50.183"/>
          </svg>
        </svg>
      </svg>
      <mask id="b">
        <svg viewBox="0 0 395.52 234.77149943">
          <svg viewBox="0 0 395.52 234.77149943">
            <svg viewBox="0 0 395.52 234.77149943">
              <svg transform="translate(0 171.30819856)" viewBox="0 0 395.52 63.46330087">
                <svg viewBox="0 0 395.52 63.46330087">
                  <svg viewBox="0 0 395.52 63.46330087">
                    <svg data-palette-color="#4b102c" viewBox="1.00909091 -37.8 315.01090909 50.55">
                      <path d="M10.2-24.95V-2.5l3.35 1q.15.95-.25 1.75-1.35-.1-2.77-.17Q9.1 0 7.7 0 6.3 0 4.65.08 3 .15 1.6.25q-.15-.95.1-1.75.95-.25 1.88-.45.92-.2 1.62-.55V-22l-4.15-.4q-.15-1 .25-1.75 1.8-.25 3.63-.6 1.82-.35 3.37-.75.5.05.95.17.45.13.95.38Zm-3.35-5.1q-.85 0-1.55-.55-.7-.55-1.1-1.35-.4-.8-.4-1.5 0-.65.55-1.32.55-.68 1.38-1.16.82-.47 1.62-.47.9 0 1.6.57.7.58 1.08 1.35.37.78.37 1.48 0 .65-.52 1.35-.53.7-1.35 1.15-.83.45-1.68.45ZM27.4.95q-2.85 0-5.63-.4Q19 .15 16.95-.8q0-2.15.32-4.33.33-2.17.98-4.37.15 0 .3-.03.15-.02.35-.02.9 0 1.55.3l.8 6.65q.95.2 2.32.47 1.38.28 3.08.28 1.8 0 3.7-.45 1.9-.45 3.2-1.63 1.3-1.17 1.3-3.37 0-1.3-.28-2.35-.27-1.05-1.22-2.05-.95-1-2.9-2.13-1.95-1.12-5.3-2.57-3.6-1.6-5.33-3.2-1.72-1.6-2.22-3.38-.5-1.77-.5-3.82 0-3.15 1.82-5.13 1.83-1.97 4.78-2.92t6.25-.95q2.2 0 4.4.37 2.2.38 4.1 1.13.1 2.3-.38 4.37-.47 2.08-1.17 4.08-.15.05-.33.05h-.32q-.85 0-1.55-.3l-.55-6.65q-1.05-.3-2.2-.48-1.15-.17-2.3-.17-1.95 0-3.75.57-1.8.58-2.93 1.83-1.12 1.25-1.12 3.35 0 1.4.5 2.52.5 1.13 2.02 2.2 1.53 1.08 4.63 2.48 3.9 1.7 6.35 3.2 2.45 1.5 3.6 3.45 1.15 1.95 1.15 5.1 0 2.45-1.1 4.28-1.1 1.82-2.95 2.99Q34.2-.25 31.95.35q-2.25.6-4.55.6ZM51-25.1l-.05 2 .25.25q2-1.75 3.9-2.45 1.9-.7 3.6-.7 3.4 0 5.7 1.82 2.3 1.83 3.5 4.78 1.19 2.95 1.19 6.25 0 6.95-3.42 10.52Q62.25.95 56.3.95q-.95 0-2.43-.3-1.47-.3-2.67-.8V10l4.35 1q.15.95-.25 1.75-1.35-.1-3.28-.17-1.92-.08-3.32-.08t-3.05.08q-1.65.07-3.05.17-.15-.95.1-1.75.85-.2 1.75-.42.9-.23 1.75-.58v-32l-4.1-.4q-.15-1 .25-1.75.4-.05 2.25-.38 1.85-.32 4.65-.97.55.05.95.15.4.1.8.25Zm.2 4.9v17.25q.95.65 2.12 1.12 1.18.48 2.88.48 3.75 0 5.67-3.03 1.93-3.02 1.93-8.47 0-5.15-1.78-7.65Q60.25-23 57.2-23q-1.85 0-3.58.92-1.72.93-2.42 1.88Zm27.04 6.7v1q0 5.05 2.03 7.83 2.02 2.77 5.52 2.77 1.55 0 2.6-.18 1.05-.17 2.08-.67 1.02-.5 2.32-1.4.8.35.9 1.2-1.55 1.8-3.7 2.8-2.15 1-4.35 1-3.8 0-6.65-1.6-2.85-1.6-4.45-4.6-1.6-3-1.6-7.15 0-4.25 1.68-7.23 1.67-2.97 4.5-4.55 2.82-1.57 6.27-1.57 4.45 0 6.58 2.97 2.12 2.98 2.12 7.68v.65q0 .3-.05.65l-.7.55-15.1-.15Zm7.1-10.2q-1.45 0-2.87.9-1.43.9-2.53 2.7-1.1 1.8-1.5 4.55l10.9-.6q0-3.85-.82-5.7-.83-1.85-3.18-1.85ZM104.44.85q-3 0-5.05-1.58-2.05-1.57-2.05-4.77 0-2.5 1.22-4.1 1.23-1.6 3.31-2.48 2.07-.87 4.62-1.17 2.55-.3 5.2-.25l.05-4.4q.05-2.8-1.05-4.33-1.1-1.52-3.35-1.52-1.25 0-2.4.17-1.15.18-2.3.58l-.65 5.3q-.4.2-1.1.22-.7.03-1.1-.02-.45-1.65-.75-3.3t-.25-3.2q2.35-1.1 4.73-1.55 2.37-.45 5.17-.45t4.53.9q1.72.9 2.55 3.1.82 2.2.82 6.15v13.4q.85.4 1.75.57.9.18 1.75.43.15.95-.25 1.75-.8.15-1.92.25-1.13.1-2.28.1-1.65 0-2.85-.3l-.7-2.6h-.2q-1.25 1.3-3.1 2.2-1.85.9-4.35.9Zm1.9-2.75q1.4 0 3-.88 1.6-.87 2.35-1.97v-6.75q-5.15 0-7.25 1.22-2.1 1.23-2.1 4.28 0 2.05 1.1 3.07 1.1 1.03 2.9 1.03Zm23.65-35.35v23.4h1.3l8-8.9-3.65-.75q-.05-.2-.05-.55 0-.6.3-1.2 1.35.05 2.52.15 1.18.1 2.58.1 1.45 0 2.37-.1.93-.1 2.33-.15.05.2.05.37v.38q0 .45-.15 1-.8.05-1.9.37-1.1.33-1.85.88l-6.8 7.3 9.25 12.45q.45.4 1.42.65.98.25 1.93.35 0 .15.02.27.03.13.03.28 0 .6-.3 1.2-1.45-.1-2.93-.15-1.47-.05-3.02-.05-1.1 0-2.23.05-1.12.05-2.32.15-.05-.2-.05-.38v-.32q0-.55.15-1.05l2.45-.15-7.15-10.2h-2.3v9.35l3.35 1q0 .15.02.27.03.13.03.28 0 .6-.3 1.2-1.35-.1-2.78-.17-1.42-.08-2.82-.08t-3.05.08q-1.65.07-3.05.17-.05-.2-.05-.38v-.32q0-.55.15-1.05.95-.25 1.87-.45.93-.2 1.63-.55v-31.8l-4.15-.4q-.05-.15-.05-.3v-.25q0-.6.3-1.2 1.8-.25 3.62-.6 1.83-.35 3.38-.75.5.05.95.17.45.13.95.38Zm24.9 23.75v1q0 5.05 2.02 7.83 2.03 2.77 5.53 2.77 1.55 0 2.6-.18 1.05-.17 2.07-.67 1.03-.5 2.33-1.4.8.35.9 1.2-1.55 1.8-3.7 2.8-2.15 1-4.35 1-3.8 0-6.65-1.6-2.85-1.6-4.45-4.6-1.6-3-1.6-7.15 0-4.25 1.67-7.23 1.68-2.97 4.5-4.55 2.83-1.57 6.28-1.57 4.45 0 6.57 2.97 2.13 2.98 2.13 7.68v.65q0 .3-.05.65l-.7.55-15.1-.15Zm7.1-10.2q-1.45 0-2.88.9-1.42.9-2.52 2.7-1.1 1.8-1.5 4.55l10.9-.6q0-3.85-.83-5.7-.82-1.85-3.17-1.85Zm20.49 6.85V-2.5l4.85 1q.15.95-.25 1.75-.9-.05-2.22-.1-1.33-.05-2.63-.1-1.3-.05-2.25-.05-1.4 0-3.05.08-1.65.07-3.05.17-.15-.95.1-1.75.95-.25 1.88-.45.92-.2 1.62-.55V-22l-4.15-.4q-.15-1 .25-1.75 1.8-.25 3.63-.6 1.82-.35 3.37-.75.5.05.83.17.32.13.82.38v4.55l.05.05q1.55-2.3 3.48-3.9 1.92-1.6 4.12-1.6.85 0 1.68.12.82.13 1.62.63.1 2.05-.17 3.9-.28 1.85-.83 3.6-.35.05-1.1.03-.75-.03-1.15-.23l-.7-5q-1.75 0-3.52 1.27-1.78 1.28-3.23 4.68Zm22.65 1.1V-2.5l3.85 1q.15.95-.25 1.75-1.35-.1-3.02-.17-1.68-.08-3.08-.08-1.4 0-3.42.08-2.03.07-3.43.17-.15-.95.1-1.75 1.05-.1 2.05-.35 1-.25 1.95-.65v-30l-3.85-1q-.15-.95.25-1.75 1.35.05 3.43.17 2.07.13 3.67.08l4.7-.3q6.45-.35 10.23 2.25 3.77 2.6 3.77 7.45 0 3.4-1.75 5.52-1.75 2.13-5.1 3.28v.2q.35.2.63.7.27.5.47.9 2 4.4 3.23 7.1 1.22 2.7 2.05 4.05.82 1.35 1.7 1.83.87.47 2.17.47l.6-.05q.25.4.3.8.05.4 0 .8-.25.35-.95.5-.7.15-1.37.2-.68.05-.98.05-3.3 0-5.45-2.6-.95-1.15-1.77-3-.83-1.85-1.93-4.53-1.1-2.67-2.95-6.42-1.65.15-3.35.15-.65 0-1.27-.03-.63-.02-1.23-.07Zm12.05-9.55q0-2.55-1.12-4.25-1.13-1.7-3.03-2.58-1.9-.87-4.25-.87-.85 0-1.75.15t-1.9.4v14.4q.8.2 1.55.27.75.08 1.45.08 4.35 0 6.7-2.05 2.35-2.05 2.35-5.55Zm16.6 11.8v1q0 5.05 2.02 7.83 2.03 2.77 5.53 2.77 1.55 0 2.6-.18 1.05-.17 2.07-.67 1.03-.5 2.33-1.4.8.35.9 1.2-1.55 1.8-3.7 2.8-2.15 1-4.35 1-3.8 0-6.65-1.6-2.85-1.6-4.45-4.6-1.6-3-1.6-7.15 0-4.25 1.67-7.23 1.68-2.97 4.5-4.55 2.83-1.57 6.28-1.57 4.45 0 6.57 2.97 2.13 2.98 2.13 7.68v.65q0 .3-.05.65l-.7.55-15.1-.15Zm7.1-10.2q-1.45 0-2.88.9-1.42.9-2.52 2.7-1.1 1.8-1.5 4.55l10.9-.6q0-3.85-.83-5.7-.82-1.85-3.17-1.85ZM259.98.85q-3 0-5.05-1.58-2.05-1.57-2.05-4.77 0-2.5 1.22-4.1 1.23-1.6 3.3-2.48 2.08-.87 4.63-1.17 2.55-.3 5.2-.25l.05-4.4q.05-2.8-1.05-4.33-1.1-1.52-3.35-1.52-1.25 0-2.4.17-1.15.18-2.3.58l-.65 5.3q-.4.2-1.1.22-.7.03-1.1-.02-.45-1.65-.75-3.3t-.25-3.2q2.35-1.1 4.72-1.55 2.38-.45 5.18-.45t4.52.9q1.73.9 2.55 3.1.83 2.2.83 6.15v13.4q.85.4 1.75.57.9.18 1.75.43.15.95-.25 1.75-.8.15-1.93.25-1.12.1-2.27.1-1.65 0-2.85-.3l-.7-2.6h-.2q-1.25 1.3-3.1 2.2-1.85.9-4.35.9Zm1.9-2.75q1.4 0 3-.88 1.6-.87 2.35-1.97v-6.75q-5.15 0-7.25 1.22-2.1 1.23-2.1 4.28 0 2.05 1.1 3.07 1.1 1.03 2.9 1.03Zm33.79-15.8-.65-5.3q-.75-.35-1.82-.53-1.08-.17-1.93-.17-2.65 0-4.4 1.42-1.75 1.43-2.62 3.96-.88 2.52-.88 5.82 0 3.75 1.03 6.1 1.02 2.35 2.75 3.45 1.72 1.1 3.82 1.1 1.65 0 3.43-.63 1.77-.62 3.47-1.72.4.25.6.57.2.33.3.73-1.85 1.95-4.07 2.85-2.23.9-4.48.9-3.1 0-5.9-1.55-2.8-1.55-4.55-4.55t-1.75-7.25q0-4.4 1.78-7.38 1.77-2.97 4.77-4.5 3-1.52 6.55-1.52 1.9 0 3.85.37 1.95.38 3.9 1.23 0 3.7-1 6.8-.2.05-.4.05h-.4q-.35 0-.7-.05t-.7-.2ZM310.52.8q-1.6 0-2.9-.6-1.3-.6-2.02-2.08-.73-1.47-.73-4.07V-21.9h-3.5q-.3-.55-.32-1.13-.03-.57.07-1.12 2.1 0 3.15-.55 1.05-.55 1.62-1.9.58-1.35 1.23-3.65h2.65v5.6h5.25q.7 1.45 0 2.75h-5.25v14.7q0 2.3.23 3.47.22 1.18.77 1.6.55.43 1.5.43.8 0 1.55-.3t1.45-.7q.7.45.75 1.5-.55.65-2 1.33-1.45.67-3.5.67Z" class="wordmark-text-0" data-fill-palette-color="primary"/>
                    </svg>
                  </svg>
                </svg>
              </svg>
              <svg transform="translate(46.2125568)" viewBox="0 0 303.0948864 156.32603634">
                <svg xmlns="http://www.w3.org/2000/svg" class="icon-icon-0" data-fill-palette-color="accent" viewBox="1.351 24.908 97.298 50.183">
                  <g fill="#fff">
                    <path d="m12.439 75.091 39.634-19.816v-3.471L5.496 75.091zM15.913 75.091h28.396V60.892zM59.835 75.091h28.399L59.835 60.892zM98.649 69.882V59.566H78.017zM98.647 33.723 78.012 44.041h20.637z"/>
                    <path d="M42.758 56.46h4.658v18.631h9.314V56.46h41.919v-9.314H61.386zM1.351 24.908v25.305h34.212V24.908zm28.31 3.386.394 1.215h1.278l-1.034.75.396 1.215-1.033-.75-1.034.75.396-1.215-1.033-.75h1.276zm1.032 8.121-1.033-.751-1.034.751.396-1.214-1.033-.752h1.277l.395-1.215.394 1.215h1.278l-1.034.752zm0 4.909-1.033-.75-1.034.75.396-1.215-1.033-.75h1.277l.395-1.215.394 1.215h1.278l-1.034.75zm-2.773 2.381-1.032-.75-1.033.75.395-1.215-1.033-.752h1.276l.396-1.214.395 1.214h1.276l-1.032.752zm-2.89-2.381-1.033-.75-1.033.75.396-1.215-1.034-.75h1.277l.395-1.215.396 1.215h1.276l-1.032.75zm-2.832 2.381-1.033-.75-1.034.75.396-1.215-1.033-.752h1.277l.395-1.214.394 1.214h1.277l-1.033.752zm-2.923-2.381-1.033-.75-1.033.75.396-1.215-1.034-.75h1.277l.395-1.215.395 1.215h1.278l-1.034.75zm-2.801 2.381-1.034-.75-1.032.75.395-1.215-1.033-.752h1.277l.394-1.214.396 1.214h1.276l-1.033.752zm-2.831-2.381-1.034-.75-1.034.75.396-1.215-1.033-.75h1.278l.394-1.215.395 1.215h1.277l-1.033.75zm-2.893 2.381-1.032-.75-1.033.75.395-1.215-1.033-.752h1.277l.395-1.214.395 1.214h1.277l-1.033.752zm-2.832-2.381-1.033-.75-1.033.75.395-1.215-1.034-.75h1.278l.395-1.215.396 1.215h1.277l-1.034.75zm-2.706-6.875H6.49l.395-1.215.396 1.215h1.277l-1.034.752.395 1.214-1.033-.751-1.033.751.395-1.214zm22.708-.532-1.032-.75-1.033.75.395-1.215-1.033-.752h1.276l.396-1.213.395 1.213h1.276l-1.032.752zm0 4.862-1.032-.752-1.033.752.395-1.217-1.033-.75h1.276l.396-1.215.395 1.215h1.276l-1.032.75zm-2.252-4.33-1.032.752.394 1.214-1.033-.751-1.033.751.396-1.214-1.034-.752h1.277l.395-1.215.396 1.215zm-3.47 4.33-1.033-.752-1.034.752.396-1.217-1.033-.75h1.277l.395-1.215.394 1.215h1.277l-1.033.75zm-.396-6.076.396 1.215-1.033-.75-1.034.75.396-1.215-1.033-.752h1.277l.395-1.213.394 1.213h1.277zm-1.887 1.746-1.034.752.395 1.214-1.033-.751-1.033.751.396-1.214-1.034-.752h1.277l.395-1.215.395 1.215zm-3.441 4.33-1.034-.752-1.032.752.395-1.217-1.033-.75h1.277l.394-1.215.396 1.215h1.276l-1.033.75zm-.395-6.076.396 1.215-1.034-.75-1.032.75.395-1.215-1.033-.752h1.277l.394-1.213.396 1.213h1.276zm-1.797 1.746-1.033.752.396 1.214-1.034-.751-1.035.751.396-1.214-1.033-.752h1.278l.394-1.215.395 1.215zm-3.532 4.33-1.032-.752-1.033.752.395-1.217-1.033-.75h1.277l.395-1.215.395 1.215h1.277l-1.033.75zm-.394-5.93.394 1.215-1.032-.75-1.033.75.395-1.215-1.033-.75h1.277l.395-1.215.395 1.215h1.277zm16.137-5.841.396-1.214.395 1.214h1.276l-1.032.751.394 1.214-1.032-.75-1.033.75.395-1.214-1.033-.751zm-2.496 1.286.396 1.215h1.276l-1.032.75.394 1.215-1.033-.75-1.033.75.396-1.215-1.034-.75h1.277zm-3.227-1.286.395-1.214.394 1.214h1.277l-1.033.751.396 1.214-1.033-.75-1.034.75.396-1.214-1.033-.751zm-2.528 1.286.395 1.215h1.278l-1.034.75.395 1.215-1.033-.75-1.033.75.396-1.215-1.034-.75h1.277zm-3.196-1.286.394-1.214.396 1.214h1.276l-1.033.751.396 1.214-1.034-.75-1.032.75.395-1.214-1.033-.751zm-2.437 1.286.395 1.215h1.277l-1.033.75.396 1.215-1.034-.75-1.034.75.396-1.215-1.033-.75h1.278zm-3.286-1.286.395-1.214.395 1.214h1.277l-1.033.751.394 1.214-1.032-.75-1.033.75.395-1.214-1.033-.751zm-2.438 1.286.396 1.215h1.277l-1.034.75.395 1.215-1.033-.75-1.033.75.395-1.215-1.034-.75h1.278zm-3.196-1.286.395-1.214.395 1.214h1.278l-1.034.751.395 1.214-1.033-.75-1.033.75.395-1.214-1.032-.751zm0 4.943.395-1.213.395 1.213h1.278l-1.034.752.395 1.215-1.033-.75-1.033.75.395-1.215-1.032-.752zm0 4.861.395-1.215.395 1.215h1.278l-1.034.75.395 1.217-1.033-.752-1.035.752.395-1.217-1.032-.75zm0 4.926.395-1.214.395 1.214h1.278l-1.035.752.395 1.215-1.033-.75-1.033.75.395-1.215-1.032-.752zm1.428 6.907-1.033-.751-1.034.751.395-1.216-1.032-.749h1.276l.395-1.216.395 1.216h1.278l-1.034.749zm1.768-3.257-1.033.751.395-1.215-1.034-.751h1.278l.395-1.214.396 1.214h1.277l-1.034.751.395 1.215zm3.865 3.257-1.032-.751-1.033.751.395-1.216-1.035-.749h1.277l.395-1.216.395 1.216h1.277l-1.033.749zm1.859-3.257-1.034.751.396-1.215-1.033-.751h1.278l.394-1.214.395 1.214h1.277l-1.033.751.396 1.215zm3.865 3.257-1.034-.751-1.032.751.395-1.216-1.033-.749h1.277l.394-1.216.396 1.216h1.276l-1.033.749zm1.768-3.346-1.033.751.396-1.215-1.034-.752h1.277l.395-1.214.395 1.214h1.278l-1.034.752.395 1.215zm3.956 3.436-1.033-.751-1.034.751.396-1.216-1.033-.75h1.277l.395-1.215.394 1.215h1.277l-1.033.75zm1.799-3.347-1.033.752.396-1.216-1.034-.751h1.277l.395-1.214.396 1.214h1.276l-1.032.751.394 1.216zm3.923 3.257-1.032-.751-1.033.751.395-1.216-1.033-.749h1.276l.396-1.216.395 1.216h1.276l-1.032.749zm1.741-3.257-1.034.752.396-1.216-1.033-.751h1.276l.396-1.214.394 1.214h1.278l-1.034.751.396 1.216zm3.864 3.257-1.034-.751-1.034.751.396-1.216-1.033-.749h1.278l.394-1.216.395 1.216h1.277l-1.033.749zm-.396-6.155.396 1.215-1.034-.75-1.034.75.396-1.215-1.033-.752h1.278l.394-1.214.395 1.214h1.277zm0-4.928.396 1.217-1.034-.752-1.034.752.396-1.217-1.033-.75h1.278l.394-1.215.395 1.215h1.277zm0-4.859.396 1.215-1.034-.75-1.034.75.396-1.215-1.033-.752h1.278l.394-1.213.395 1.213h1.277zm0-4.944.396 1.214-1.034-.75-1.034.75.396-1.214-1.033-.751h1.278l.394-1.214.395 1.214h1.277zM8.01 68.148H1.351v3.33zM1.351 60.974v3.615h13.776l7.23-3.615zM1.351 53.8v3.616h28.122l7.231-3.616zM35.584 46.597v3.615h8.296l7.229-3.615zM35.579 39.256v3.616h22.982l7.23-3.616zM35.579 32.083v3.614h37.33l7.23-3.614zM87.259 28.522l7.23-3.614h-58.91v3.614z"/>
                  </g>
                </svg>
              </svg>
            </svg>
          </svg>
        </svg>
      </mask>
      <linearGradient id="a" x1="0" x2="1" y1=".5" y2=".5">
        <stop offset="0" stop-color="#f00b51"/>
        <stop offset="1" stop-color="#730062"/>
      </linearGradient>
      <path fill="url(#a)" d="M0 0h395.52v234.77149943H0z" data-fill-palette-color="accent" mask="url(#b)"/>
    </svg>
  </svg>
</svg>
