<?xml version="1.0" encoding="iso-8859-1"?>
<!-- Uploaded to: SVG Repo, www.svgrepo.com, Generator: SVG Repo Mixer Tools -->
<svg height="800px" width="800px" version="1.1" id="Layer_1" xmlns="http://www.w3.org/2000/svg" xmlns:xlink="http://www.w3.org/1999/xlink" 
	 viewBox="0 0 392.663 392.663" xml:space="preserve">
<path style="fill:#FFC10D;" d="M165.236,21.754v116.299c0,6.012-4.848,10.925-10.925,10.925h-28.574l70.594,70.594l70.529-70.529
	h-28.574c-6.012,0-10.925-4.848-10.925-10.925V21.754C227.362,21.754,165.236,21.754,165.236,21.754z"/>
<path style="fill:#56ACE0;" d="M21.851,223.192v114.812c0,18.036,14.675,32.711,32.711,32.711h283.539
	c18.036,0,32.711-14.675,32.711-32.711V223.192h-21.786v92.962c0,18.036-14.675,32.711-32.711,32.711H76.477
	c-18.036,0-32.711-14.675-32.711-32.711v-92.962H21.851z"/>
<g>
	<path style="fill:#194F82;" d="M188.574,242.78c4.073,4.073,11.378,4.267,15.451,0l96.905-96.905
		c7.111-7.24,1.745-18.747-7.758-18.618h-44.024V10.958c0-6.012-4.848-10.925-10.925-10.925h-83.846
		c-6.012,0-10.925,4.848-10.925,10.925v116.299H99.426c-8.339-0.646-15.063,11.313-7.758,18.618L188.574,242.78z M154.376,149.042
		c6.012,0,10.925-4.848,10.925-10.925V21.883h62.125v116.299c0,6.012,4.848,10.925,10.925,10.925h28.574l-70.594,70.594
		l-70.529-70.529h28.574C154.376,149.172,154.376,149.042,154.376,149.042z"/>
	<path style="fill:#194F82;" d="M381.737,201.471h-43.572c-6.012,0-10.925,4.848-10.925,10.925v103.951
		c0,6.012-4.848,10.925-10.925,10.925H76.412c-6.012,0-10.925-4.848-10.925-10.925v-12.994H94.19
		c6.012,0,10.925-4.848,10.925-10.925s-4.848-10.925-10.925-10.925H65.552v-21.786h50.489c6.012,0,10.925-4.848,10.925-10.925
		s-4.848-10.925-10.925-10.925H65.552v-25.471c0-6.012-4.848-10.925-10.925-10.925H10.925C4.913,201.406,0,206.319,0,212.396
		v125.737c0,29.996,24.501,54.497,54.562,54.497h283.539c30.061,0,54.562-24.501,54.562-54.562V212.461
		C392.598,206.384,387.749,201.471,381.737,201.471z M370.812,338.069c0,18.036-14.675,32.711-32.711,32.711H54.626
		c-18.036,0-32.711-14.675-32.711-32.711V223.321h21.786v93.026c0,18.036,14.675,32.711,32.711,32.711h239.838
		c18.036,0,32.711-14.675,32.711-32.711v-93.026h21.786v114.747H370.812z"/>
</g>
</svg>