<?xml version="1.0" encoding="iso-8859-1"?>
<!-- Generator: Adobe Illustrator 19.0.0, SVG Export Plug-In . SVG Version: 6.00 Build 0)  -->
<svg version="1.1" id="Layer_1" xmlns="http://www.w3.org/2000/svg" xmlns:xlink="http://www.w3.org/1999/xlink" x="0px" y="0px"
	 viewBox="0 0 490 490" style="enable-background:new 0 0 490 490;" xml:space="preserve">
<g>
	<g id="XMLID_26_">
		<g>
			<rect x="75" y="365" style="fill:#F4661E;" width="50" height="50"/>
			<rect x="75" y="255" style="fill:#F4661E;" width="50" height="50"/>
			<rect x="75" y="145" style="fill:#F4661E;" width="50" height="50"/>
			<polygon style="fill:#CCCCCC;" points="420,60 445,120 395,120 			"/>
			<rect x="395" y="400" style="fill:#FFD248;" width="50" height="80"/>
			<rect x="395" y="120" style="fill:#31C0D8;" width="50" height="280"/>
			<polygon style="fill:#CCCCCC;" points="350,95 265,95 265,10 			"/>
			<path style="fill:#FFFFFF;" d="M350,95v385H10V10h255v85H350z M125,415v-50H75v50H125z M125,305v-50H75v50H125z M125,195v-50H75
				v50H125z"/>
		</g>
		<g>
			<path d="M357.071,87.929l-85-85c-1.912-1.912-4.47-2.904-7.071-2.905V0H10C4.477,0,0,4.477,0,10v470c0,5.523,4.477,10,10,10h340
				c5.523,0,10-4.477,10-10V95h-0.024C359.975,92.399,358.983,89.841,357.071,87.929z M275,34.142L325.858,85H275V34.142z M20,470
				V20h235v75c0,5.523,4.477,10,10,10h75v365H20z"/>
			<path d="M470,235v155h-15V120h-0.012c0-1.302-0.242-2.609-0.757-3.846l-25-60C427.678,52.427,424.037,50,420,50
				s-7.678,2.427-9.231,6.154l-25,60c-0.515,1.237-0.757,2.544-0.757,3.846H385v360c0,5.523,4.477,10,10,10h50
				c5.523,0,10-4.477,10-10v-70h25c5.523,0,10-4.477,10-10V235H470z M405,130h30v260h-30V130z M420,86l10,24h-20L420,86z M435,470
				h-30v-60h30V470z"/>
			<path d="M125,135H75c-5.523,0-10,4.477-10,10v50c0,5.523,4.477,10,10,10h50c5.523,0,10-4.477,10-10v-50
				C135,139.477,130.523,135,125,135z M115,185H85v-30h30V185z"/>
			<path d="M125,245H75c-5.523,0-10,4.477-10,10v50c0,5.523,4.477,10,10,10h50c5.523,0,10-4.477,10-10v-50
				C135,249.477,130.523,245,125,245z M115,295H85v-30h30V295z"/>
			<path d="M125,355H75c-5.523,0-10,4.477-10,10v50c0,5.523,4.477,10,10,10h50c5.523,0,10-4.477,10-10v-50
				C135,359.477,130.523,355,125,355z M115,405H85v-30h30V405z"/>
			<rect x="150" y="140" width="50" height="20"/>
			<rect x="150" y="180" width="135" height="20"/>
			<rect x="150" y="250" width="50" height="20"/>
			<rect x="150" y="290" width="135" height="20"/>
			<rect x="150" y="360" width="50" height="20"/>
			<rect x="150" y="400" width="135" height="20"/>
		</g>
	</g>
</g>
<g>
</g>
<g>
</g>
<g>
</g>
<g>
</g>
<g>
</g>
<g>
</g>
<g>
</g>
<g>
</g>
<g>
</g>
<g>
</g>
<g>
</g>
<g>
</g>
<g>
</g>
<g>
</g>
<g>
</g>
</svg>
