<?xml version="1.0" encoding="utf-8"?>
<!-- Uploaded to: SVG Repo, www.svgrepo.com, Generator: SVG Repo Mixer Tools -->
<svg fill="#000000" width="800px" height="800px" viewBox="0 0 32 32" version="1.1" xmlns="http://www.w3.org/2000/svg">
<title>question</title>
<path d="M20.191 4.816c-1.217-0.673-2.669-1.070-4.212-1.070-1.553 0-3.013 0.401-4.281 1.105l0.045-0.023c-1.798 1.001-2.994 2.89-2.994 5.058 0 0.041 0 0.082 0.001 0.123l-0-0.006c0.002 0.689 0.561 1.246 1.25 1.246 0 0 0 0 0 0h0.004c0.689-0.002 1.246-0.561 1.246-1.25 0-0.001 0-0.003 0-0.004v0c-0.001-0.031-0.002-0.068-0.002-0.105 0-1.252 0.703-2.34 1.735-2.892l0.018-0.009c0.863-0.464 1.888-0.737 2.977-0.737 1.086 0 2.108 0.271 3.004 0.749l-0.034-0.017c1.079 0.56 1.803 1.669 1.803 2.947 0 0.023-0 0.047-0.001 0.070l0-0.003c0 2.48-0.668 3.062-2.289 3.872-2.46 1.176-3.709 3.574-3.711 7.128 0 0 0 0 0 0 0 0.69 0.559 1.249 1.249 1.25h0.001c0 0 0 0 0.001 0 0.69 0 1.249-0.559 1.249-1.249 0-0 0-0 0-0.001v0c0.002-3.388 1.307-4.403 2.309-4.882 2.202-0.864 3.732-2.971 3.732-5.435 0-0.242-0.015-0.481-0.043-0.715l0.003 0.028c0-0.019 0-0.041 0-0.063 0-2.201-1.224-4.116-3.029-5.102l-0.030-0.015zM16.88 25.119c-0.228-0.218-0.538-0.352-0.88-0.352s-0.652 0.134-0.88 0.353l0.001-0c-0.124 0.106-0.22 0.24-0.278 0.394l-0.002 0.007c-0.051 0.136-0.080 0.292-0.080 0.456 0 0.009 0 0.017 0 0.026l-0-0.001c0 0.002 0 0.004 0 0.006 0 0.341 0.138 0.649 0.36 0.873l-0-0c0.221 0.235 0.533 0.381 0.88 0.381s0.659-0.146 0.879-0.38l0.001-0.001c0.229-0.224 0.374-0.534 0.38-0.878l0-0.001c-0.005-0.174-0.041-0.339-0.104-0.489l0.003 0.009c-0.060-0.16-0.156-0.295-0.278-0.399l-0.001-0.001z"></path>
</svg>