<?xml version="1.0" encoding="utf-8"?>
<!-- Uploaded to: SVG Repo, www.svgrepo.com, Generator: SVG Repo Mixer Tools -->
<svg xmlns="http://www.w3.org/2000/svg" xmlns:xlink="http://www.w3.org/1999/xlink" version="1.1" id="toolkey"  viewBox="0 0 220.7554 217.9232" enable-background="new 0 0 220.7554 217.9232" xml:space="preserve" width="512" height="512">
<g>
	<polygon fill="#5CB0FF" points="174.7585,195.7079 185.8124,208.101 210.9296,182.9779 198.5402,171.9276  "/>
	<path fill="#5CB0FF" d="M192.5607,166.5946l-78.8225-70.3022c-1.3984-1.248-1.7422-3.3008-0.8242-4.9375   c12.1797-21.7559,8.3594-49.2812-9.293-66.9355C90.5312,11.3295,72.0663,5.6615,54.1405,8.8842l38.1641,38.1621   c1.5625,1.5625,1.5625,4.0938,0,5.6562L52.7069,92.3022c-1.5,1.5-4.1562,1.5-5.6562,0L8.8865,54.1381   c-3.2187,17.9297,2.4454,36.3887,15.5352,49.4785c18.6367,18.6328,48.1484,21.7188,70.1758,7.3301   c0.6719-0.4375,1.4297-0.6504,2.1875-0.6504c1.1055,0,2.2031,0.459,2.9844,1.3379l69.6558,78.0947L192.5607,166.5946z    M63.1366,107.6752c-2.2109,0-4-1.791-4-4s1.7891-4,4-4c20.9531,0,38-17.0469,38-38c0-2.209,1.7891-4,4-4s4,1.791,4,4   C109.1366,87.0404,88.4999,107.6752,63.1366,107.6752z"/>
	<path fill="#1C71DA" d="M219.4179,179.8275l-98.0195-87.4238c12.0625-24.3789,7.2852-54.2305-12.1211-73.6406   C92.453,1.9389,67.8554-4.151,45.1054,2.8627c-1.3398,0.4141-2.3633,1.498-2.7031,2.8594   c-0.3359,1.3613,0.0625,2.7988,1.0547,3.791l40.3633,40.3613L49.8788,83.8178L9.5155,43.4545   c-0.9922-0.9902-2.4297-1.3887-3.793-1.0547c-1.3594,0.3379-2.4453,1.3633-2.8594,2.7051   c-7.0156,22.7559-0.9219,47.3438,15.9023,64.168c20.4766,20.4766,52.4531,24.5117,77.2617,10.1836l86.6328,97.1289   c0.7305,0.8223,1.7695,1.3047,2.8711,1.3359c0.0391,0.002,0.0742,0.002,0.1133,0.002c1.0586,0,2.0781-0.4199,2.8281-1.1719   l31.1094-31.1113c0.7773-0.7773,1.2031-1.8418,1.1719-2.9414C220.7226,181.5971,220.2382,180.56,219.4179,179.8275z    M96.7851,110.2963c-0.7578,0-1.5156,0.2129-2.1875,0.6504c-22.0273,14.3887-51.5391,11.3027-70.1758-7.3301   C11.3319,90.5268,5.6679,72.0678,8.8865,54.1381l38.1642,38.1641c1.5,1.5,4.1562,1.5,5.6562,0l39.5977-39.5996   c1.5625-1.5625,1.5625-4.0938,0-5.6562L54.1405,8.8842c17.9258-3.2227,36.3906,2.4453,49.4805,15.5352   c17.6523,17.6543,21.4727,45.1797,9.293,66.9355c-0.918,1.6367-0.5742,3.6895,0.8242,4.9375l78.8225,70.3022l-23.1355,23.1343   l-69.6558-78.0947C98.9882,110.7553,97.8905,110.2963,96.7851,110.2963z M185.8124,208.101l-11.054-12.3931l23.7817-23.7803   l12.3894,11.0503L185.8124,208.101z"/>
	<path fill="#FFFFFF" d="M105.1366,57.6752c-2.2109,0-4,1.791-4,4c0,20.9531-17.0469,38-38,38c-2.2109,0-4,1.791-4,4s1.7891,4,4,4   c25.3633,0,46-20.6348,46-46C109.1366,59.4662,107.3476,57.6752,105.1366,57.6752z"/>
</g>
<path fill="#FF5D5D" d="M189.3886,47.4989c-1.0234,0-2.0469-0.3906-2.8281-1.1714c-1.5625-1.5625-1.5625-4.0952,0-5.6572  l14.1426-14.1421c1.5605-1.5615,4.0938-1.5615,5.6562,0c1.5625,1.5625,1.5625,4.0952,0,5.6572l-14.1426,14.1421  C191.4364,47.1083,190.412,47.4989,189.3886,47.4989z"/>
<path fill="#FF5D5D" d="M203.5312,47.4975c-1.0234,0-2.0479-0.3906-2.8281-1.1714l-14.1426-14.1426  c-1.5625-1.5625-1.5625-4.0947,0-5.6572c1.5605-1.5615,4.0957-1.5615,5.6562,0l14.1426,14.1426  c1.5625,1.5625,1.5625,4.0947,0,5.6572C205.579,47.1068,204.5546,47.4975,203.5312,47.4975z"/>
<path fill="#00D40B" d="M55.3886,207.4989c-7.7197,0-14-6.2803-14-14s6.2803-14,14-14s14,6.2803,14,14  S63.1083,207.4989,55.3886,207.4989z M55.3886,187.4989c-3.3086,0-6,2.6914-6,6s2.6914,6,6,6s6-2.6914,6-6  S58.6972,187.4989,55.3886,187.4989z"/>
<path fill="#FFC504" d="M196.703,130.1244c-1.0234,0-2.0469-0.3906-2.8281-1.1714l-11.3145-11.3135  c-0.75-0.75-1.1719-1.7676-1.1719-2.8286s0.4219-2.0786,1.1719-2.8286l11.3145-11.3135c1.5625-1.5615,4.0938-1.5615,5.6562,0  l11.3135,11.3135c1.5625,1.5625,1.5625,4.0947,0,5.6572l-11.3135,11.3135C198.7509,129.7338,197.7265,130.1244,196.703,130.1244z   M191.0458,114.8109l5.6572,5.6567l5.6562-5.6567l-5.6562-5.6567L191.0458,114.8109z"/>
</svg>