<?xml version="1.0" encoding="iso-8859-1"?>
<!-- Uploaded to: SVG Repo, www.svgrepo.com, Generator: SVG Repo Mixer Tools -->
<svg version="1.1" id="Layer_1" xmlns="http://www.w3.org/2000/svg" xmlns:xlink="http://www.w3.org/1999/xlink" 
	 viewBox="0 0 512.002 512.002" xml:space="preserve">
<path style="fill:#DBDDDD;" d="M359.346,277c0,34.061-27.617,61.678-61.678,61.678h-81.894c-34.061,0-61.678-27.617-61.678-61.678
	V69.762c0-34.061,27.617-61.678,61.678-61.678h81.895c34.061,0,61.678,27.617,61.678,61.678V277H359.346z"/>
<polyline style="fill:#F5F5F5;" points="296.329,69.762 359.346,69.762 359.346,277 154.096,277 154.096,69.762 271.538,69.762 "/>
<circle style="fill:#DBDDDD;" cx="253.748" cy="171.04" r="34.848"/>
<g style="opacity:0.2;">
	<path style="fill:#231F20;" d="M243.683,171.042c0-14.884,9.332-27.58,22.461-32.577c-3.852-1.466-8.027-2.275-12.391-2.275
		c-19.248,0-34.853,15.605-34.853,34.853s15.605,34.853,34.853,34.853c4.364,0,8.539-0.811,12.391-2.275
		C253.015,198.623,243.683,185.925,243.683,171.042z"/>
</g>
<rect x="238.302" y="391.502" style="fill:#DBDDDD;" width="30.901" height="74.73"/>
<g style="opacity:0.1;">
	<rect x="238.302" y="391.502" style="fill:#231F20;" width="30.901" height="74.73"/>
</g>
<g>
	<path style="fill:#547475;" d="M218.542,338.678v39.895c0,7.145,5.792,12.935,12.935,12.935h44.552
		c7.145,0,12.935-5.789,12.935-12.935v-39.895H218.542z"/>
	<path style="fill:#547475;" d="M197.702,503.916h-26.208c-10.404,0-18.838-8.433-18.838-18.836l0,0
		c0-10.402,8.433-18.838,18.838-18.838h163.41c10.404,0,18.838,8.436,18.838,18.838l0,0c0,10.402-8.433,18.836-18.838,18.836
		h-112.41"/>
</g>
<g style="opacity:0.2;">
	<path style="fill:#231F20;" d="M244.052,378.573v-39.895h-25.509v39.895c0,7.145,5.792,12.935,12.935,12.935h25.509
		C249.843,391.508,244.052,385.718,244.052,378.573z"/>
</g>
<g style="opacity:0.2;">
	<path style="fill:#231F20;" d="M178.166,485.08c0-10.402,8.433-18.838,18.837-18.838h-25.509c-10.404,0-18.838,8.436-18.838,18.838
		c0,10.402,8.433,18.836,18.838,18.836h25.509C186.6,503.916,178.166,495.482,178.166,485.08z"/>
</g>
<g>
	<path style="fill:#231F20;" d="M210.816,171.042c0,23.676,19.261,42.937,42.937,42.937s42.937-19.261,42.937-42.937
		s-19.261-42.937-42.937-42.937C230.077,128.106,210.816,147.367,210.816,171.042z M280.521,171.042
		c0,14.76-12.009,26.768-26.768,26.768s-26.768-12.009-26.768-26.768c0-14.76,12.009-26.768,26.768-26.768
		C268.512,144.274,280.521,156.282,280.521,171.042z"/>
	<path style="fill:#231F20;" d="M297.668,0h-81.894c-38.468,0-69.762,31.295-69.762,69.762v207.238
		c0,36.678,28.455,66.811,64.446,69.539v32.034c0,11.165,8.758,20.299,19.76,20.955v58.63h-58.724
		c-14.845,0-26.923,12.077-26.923,26.923c0,14.844,12.077,26.92,26.923,26.92h26.208c4.466,0,8.084-3.618,8.084-8.084
		s-3.618-8.084-8.084-8.084h-26.208c-5.93,0-10.754-4.824-10.754-10.752c0-5.93,4.825-10.754,10.754-10.754h66.808h30.901h65.701
		c5.93,0,10.754,4.825,10.754,10.754c0,5.928-4.825,10.752-10.754,10.752h-112.41c-4.466,0-8.084,3.618-8.084,8.084
		s3.618,8.084,8.084,8.084h112.41c14.846,0,26.923-12.076,26.923-26.92c0-14.845-12.077-26.923-26.923-26.923h-57.617v-58.63
		c11.002-0.656,19.76-9.791,19.76-20.955v-31.811h0.621c38.468,0,69.762-31.294,69.762-69.762V69.762
		C367.431,31.295,336.136,0,297.668,0z M215.774,16.168h81.895c26.804,0,49.074,19.78,52.984,45.51H296.33
		c-4.466,0-8.084,3.618-8.084,8.084c0,4.466,3.618,8.084,8.084,8.084h54.933v19.577h-30.68c-4.466,0-8.084,3.618-8.084,8.084
		s3.618,8.084,8.084,8.084h30.68v16.597h-30.68c-4.466,0-8.084,3.618-8.084,8.084c0,4.466,3.618,8.084,8.084,8.084h30.68v16.6
		h-30.68c-4.466,0-8.084,3.618-8.084,8.084c0,4.466,3.618,8.084,8.084,8.084h30.68v16.597h-30.68c-4.466,0-8.084,3.618-8.084,8.084
		c0,4.466,3.618,8.084,8.084,8.084h30.68v16.6h-30.68c-4.466,0-8.084,3.618-8.084,8.084c0,4.466,3.618,8.084,8.084,8.084h30.68
		v24.255H162.18v-24.254h30.682c4.466,0,8.084-3.618,8.084-8.084c0-4.466-3.618-8.084-8.084-8.084H162.18v-16.6h30.682
		c4.466,0,8.084-3.618,8.084-8.084c0-4.466-3.618-8.084-8.084-8.084H162.18v-16.597h30.682c4.466,0,8.084-3.618,8.084-8.084
		c0-4.466-3.618-8.084-8.084-8.084H162.18v-16.6h30.682c4.466,0,8.084-3.618,8.084-8.084c0-4.466-3.618-8.084-8.084-8.084H162.18
		v-16.597h30.682c4.466,0,8.084-3.618,8.084-8.084c0-4.466-3.618-8.084-8.084-8.084H162.18V77.847h109.358
		c4.466,0,8.084-3.618,8.084-8.084c0-4.466-3.618-8.084-8.084-8.084H162.79C166.7,35.949,188.97,16.168,215.774,16.168z
		 M246.386,458.158v-58.566h14.733v58.566H246.386z M280.879,378.573c0,2.674-2.175,4.851-4.851,4.851h-6.825h-30.901h-6.825
		c-2.674,0-4.851-2.176-4.851-4.851v-31.811h54.253L280.879,378.573L280.879,378.573z M297.668,330.594h-8.705h-70.421h-2.768
		c-26.804,0-49.074-19.78-52.984-45.51h187.862C346.743,310.814,324.472,330.594,297.668,330.594z"/>
</g>
<g style="opacity:0.2;">
	<path style="fill:#231F20;" d="M178.74,277V69.762c0-34.061,27.617-61.678,61.678-61.678h-24.644
		c-34.061,0-61.678,27.617-61.678,61.678v207.238c0,34.061,27.617,61.678,61.678,61.678h24.644
		C206.356,338.678,178.74,311.061,178.74,277z"/>
</g>
</svg>