<?xml version="1.0" encoding="UTF-8" standalone="no"?>
<!-- Generator: Adobe Illustrator 19.0.0, SVG Export Plug-In . SVG Version: 6.00 Build 0)  -->

<svg
   version="1.1"
   id="Layer_1"
   x="0px"
   y="0px"
   viewBox="0 0 473.654 473.654"
   style="enable-background:new 0 0 473.654 473.654;"
   xml:space="preserve"
   sodipodi:docname="up-arrow-svgrepo-com.svg"
   inkscape:version="1.1 (c68e22c387, 2021-05-23)"
   xmlns:inkscape="http://www.inkscape.org/namespaces/inkscape"
   xmlns:sodipodi="http://sodipodi.sourceforge.net/DTD/sodipodi-0.dtd"
   xmlns="http://www.w3.org/2000/svg"
   xmlns:svg="http://www.w3.org/2000/svg"><defs
   id="defs1167" /><sodipodi:namedview
   id="namedview1165"
   pagecolor="#ffffff"
   bordercolor="#666666"
   borderopacity="1.0"
   inkscape:pageshadow="2"
   inkscape:pageopacity="0.0"
   inkscape:pagecheckerboard="0"
   showgrid="false"
   inkscape:zoom="1.6531054"
   inkscape:cx="236.827"
   inkscape:cy="235.61716"
   inkscape:window-width="1920"
   inkscape:window-height="1001"
   inkscape:window-x="-9"
   inkscape:window-y="-9"
   inkscape:window-maximized="1"
   inkscape:current-layer="Layer_1" />
<circle
   style="fill:#6EC2CB;"
   cx="236.827"
   cy="236.827"
   id="circle1130"
   r="236.827" />
<path
   style="fill:#ffffff"
   d="m 366.553,270.59493 c -35.885,-35.889 -71.766,-71.77 -107.651,-107.655 -10.837,-10.845 -28.907,-10.549 -39.666,0.213 -35.885,35.881 -71.77,71.77 -107.651,107.655 -25.564,25.56 14.259,65.08 39.879,39.456 29.236,-29.236 58.476,-58.476 87.712,-87.712 29.311,29.307 58.614,58.618 87.925,87.929 25.563,25.56 65.083,-14.259 39.452,-39.886 z"
   id="path1132" />
<g
   id="g1134">
</g>
<g
   id="g1136">
</g>
<g
   id="g1138">
</g>
<g
   id="g1140">
</g>
<g
   id="g1142">
</g>
<g
   id="g1144">
</g>
<g
   id="g1146">
</g>
<g
   id="g1148">
</g>
<g
   id="g1150">
</g>
<g
   id="g1152">
</g>
<g
   id="g1154">
</g>
<g
   id="g1156">
</g>
<g
   id="g1158">
</g>
<g
   id="g1160">
</g>
<g
   id="g1162">
</g>
<path
   d="M 223.82117,473.00297 C 177.64787,470.44152 133.12561,454.36787 96.097131,426.89139 64.859505,403.71194 40.042492,373.6098 23.327038,338.62391 c -30.6857181,-64.22604 -30.6857181,-139.36778 0,-203.59382 5.411006,-11.32537 9.097101,-17.78831 16.636196,-29.16872 15.686984,-23.679806 36.604562,-45.281919 60.151376,-62.119855 12.1984,-8.722871 31.85537,-19.611705 45.67161,-25.299449 66.76004,-27.4831518 141.43059,-23.5648293 204.36076,10.72379 20.38462,11.106919 36.70948,23.40713 53.97684,40.669666 19.4757,19.470258 34.45688,40.609318 46.20314,65.194568 10.87586,22.76347 17.66435,46.02387 21.3233,73.06311 1.15389,8.52718 1.35065,12.71303 1.35065,28.7338 0,20.21038 -0.75824,28.57951 -4.17851,46.1208 -8.51804,43.68581 -30.16591,85.17769 -61.39848,117.68078 -17.0593,17.75325 -36.72868,32.7931 -57.42222,43.90688 -32.33304,17.36496 -64.78007,26.48562 -101.37872,28.49693 -11.91652,0.65489 -12.4784,0.65422 -24.80181,-0.0294 z M 143.5995,316.04738 c 4.4453,-2.16633 6.19862,-3.83392 50.13063,-47.67994 l 45.52421,-45.4351 45.51657,45.43907 c 29.21633,29.16661 46.54253,46.02526 48.38147,47.07594 10.74778,6.14074 24.05382,3.65865 33.55729,-6.25971 9.27446,-9.67937 10.83018,-23.5212 3.82266,-34.01177 -0.97669,-1.46216 -27.30867,-28.14401 -58.5155,-59.29301 -49.73071,-49.63854 -57.16396,-56.83049 -60.17418,-58.22074 -9.35696,-4.32146 -20.62731,-3.52813 -28.54402,2.00925 -1.37614,0.96255 -27.99511,27.2911 -59.15328,58.5079 -40.62394,40.70038 -57.03663,57.52795 -58.01355,59.47997 -8.3211,16.62679 2.09063,35.82526 22.11168,40.77236 0.66542,0.16442 3.35629,0.20032 5.97973,0.0798 4.01132,-0.1843 5.50243,-0.57615 9.37629,-2.464 z"
   id="path1388"
   style="stroke-width:0.604922;fill:#008080" /><path
   style="fill:#008080;stroke-width:0.604922"
   d="m 221.70395,472.69405 c -1.16448,-0.13365 -5.11159,-0.52724 -8.77137,-0.87468 -14.60916,-1.38687 -32.09808,-4.9961 -47.18393,-9.73744 C 119.61405,447.58224 77.783278,418.09401 48.503408,379.43093 21.885956,344.28349 5.855102,302.90184 1.4619512,257.99927 -0.21097045,240.90028 0.85641985,214.82642 3.9672161,196.80149 15.750907,128.52308 57.787966,67.740797 117.05243,33.289169 147.33081,15.687727 177.24235,5.8315917 212.93258,1.6957412 c 10.33162,-1.19724745 39.7278,-1.0105353 50.51099,0.3208246 56.66669,6.9964189 105.72051,31.4286092 144.27392,71.8583772 30.95687,32.463507 51.61505,71.872127 60.47002,115.355787 3.37052,16.5514 4.0674,23.10564 4.3922,41.30921 0.35,19.61618 -0.34184,31.43817 -2.6159,44.69961 -9.42612,54.96963 -36.51158,103.48797 -77.97429,139.67578 -23.87418,20.8369 -50.57589,36.06419 -80.7571,46.05369 -16.34894,5.41124 -29.49445,8.32568 -47.78885,10.5951 -7.12261,0.88356 -36.8696,1.68883 -41.73962,1.12993 z M 142.53828,316.72336 c 1.8734,-0.89777 4.84983,-2.86457 6.61427,-4.37067 1.76444,-1.5061 22.6621,-22.04182 46.43923,-45.63494 23.77713,-23.59312 43.48319,-42.89658 43.79124,-42.89658 0.30805,0 19.52649,18.85739 42.70766,41.90531 52.83458,52.53089 50.39208,50.24959 55.48435,51.82244 13.45803,4.15676 27.9256,-2.54076 34.4599,-15.95263 2.61561,-5.36864 3.516,-10.7522 2.67683,-16.00518 -1.36838,-8.56572 1.1006,-5.78867 -56.45134,-63.49506 -28.98479,-29.06258 -55.48756,-55.37897 -58.89504,-58.48087 -7.31627,-6.66016 -10.48437,-8.16144 -18.17839,-8.61429 -6.19785,-0.36479 -11.02534,0.60172 -15.51706,3.10665 -2.60653,1.45361 -15.08895,13.57586 -53.65093,52.10289 -27.63976,27.61469 -53.89137,54.08349 -58.33692,58.81956 -7.69346,8.19622 -8.14596,8.81889 -9.39361,12.92655 -4.305355,14.17443 4.02506,29.21742 19.5863,35.36874 3.28138,1.29713 4.50036,1.45851 9.51055,1.25911 4.69475,-0.18685 6.37031,-0.52753 9.15296,-1.86103 z"
   id="path1464" /></svg>
