<?xml version="1.0" encoding="iso-8859-1"?>
<!-- Generator: Adobe Illustrator 19.0.0, SVG Export Plug-In . SVG Version: 6.00 Build 0)  -->
<svg version="1.1" id="Layer_1" xmlns="http://www.w3.org/2000/svg" xmlns:xlink="http://www.w3.org/1999/xlink" x="0px" y="0px"
	 viewBox="0 0 512 512" style="enable-background:new 0 0 512 512;" xml:space="preserve">
<g>
	<path style="fill:#C2B8B9;" d="M98.346,232.728c-4.561,0-8.258-3.697-8.258-8.258v-22.522c0-4.561,3.697-8.258,8.258-8.258
		s8.258,3.697,8.258,8.258v22.522C106.604,229.03,102.906,232.728,98.346,232.728z"/>
	<path style="fill:#C2B8B9;" d="M413.654,232.728c-4.561,0-8.258-3.697-8.258-8.258v-22.522c0-4.561,3.697-8.258,8.258-8.258
		c4.561,0,8.258,3.697,8.258,8.258v22.522C421.912,229.03,418.215,232.728,413.654,232.728z"/>
</g>
<path style="fill:#8B7E7F;" d="M256,8.258c-49.754,0-90.088,40.333-90.088,90.088v119.992h180.176V98.346
	C346.088,48.592,305.754,8.258,256,8.258z"/>
<g>
	<path style="fill:#463836;" d="M391.132,503.742H120.868v-11.261c0-12.387,10.135-22.522,22.522-22.522H368.61
		c12.387,0,22.522,10.135,22.522,22.522v11.261H391.132z"/>
	<path style="fill:#463836;" d="M154.652,196.316v25.525l11.011,8.258l-11.011,8.258v28.903
		c0,55.884,45.466,101.348,101.348,101.348s101.348-45.466,101.348-101.348v-28.903l-11.011-8.258l11.011-8.258v-25.525
		L154.652,196.316L154.652,196.316z"/>
</g>
<rect x="154.657" y="221.845" style="fill:#605353;" width="202.697" height="16.516"/>
<path d="M413.654,193.689c-4.561,0-8.258,3.697-8.258,8.258v3.003h-39.788v-8.634c0-4.561-3.697-8.258-8.258-8.258h-3.003V98.346
	C354.346,44.118,310.229,0,256,0s-98.346,44.118-98.346,98.346v89.712h-3.003c-4.561,0-8.258,3.697-8.258,8.258v8.634h-39.79v-3.003
	c0-4.561-3.697-8.258-8.258-8.258s-8.258,3.697-8.258,8.258v22.522c0,4.561,3.697,8.258,8.258,8.258s8.258-3.697,8.258-8.258v-3.004
	h6.006v45.795c0,76.293,59.895,138.853,135.132,143.146v51.294H143.39c-16.972,0-30.779,13.807-30.779,30.779v11.262
	c0,4.561,3.697,8.258,8.258,8.258h270.263c4.561,0,8.258-3.697,8.258-8.258V492.48c0-16.972-13.807-30.779-30.779-30.779H264.258
	v-51.294c75.238-4.294,135.132-66.854,135.132-143.146v-45.795h6.006v3.004c0,4.561,3.697,8.258,8.258,8.258
	c4.561,0,8.258-3.697,8.258-8.258v-22.522C421.912,197.386,418.215,193.689,413.654,193.689z M382.874,492.48v3.004H129.126v-3.004
	c0-7.865,6.398-14.263,14.263-14.263H368.61C376.475,478.217,382.874,484.615,382.874,492.48z M162.91,238.357h116.364
	c4.561,0,8.258-3.697,8.258-8.258s-3.697-8.258-8.258-8.258H162.91v-17.267h186.182v17.267h-36.786
	c-4.561,0-8.258,3.697-8.258,8.258s3.697,8.258,8.258,8.258h36.786v28.903c0,51.331-41.76,93.09-93.09,93.09
	s-93.09-41.76-93.09-93.09v-28.903H162.91z M174.17,98.346c0-45.121,36.709-81.83,81.83-81.83s81.83,36.709,81.83,81.83v89.712
	H174.17V98.346z M382.874,267.261c0,69.959-56.915,126.875-126.874,126.875S129.126,337.22,129.126,267.261v-45.795h17.267v45.795
	c0,60.438,49.17,109.607,109.607,109.607s109.607-49.17,109.607-109.607v-45.795h17.267V267.261z"/>
<path d="M210.956,142.733c-4.708,0-8.539,3.831-8.539,8.539c0,4.708,3.831,8.54,8.539,8.54s8.54-3.831,8.54-8.54
	C219.496,146.563,215.664,142.733,210.956,142.733z"/>
<path d="M301.044,142.733c-4.708,0-8.54,3.831-8.54,8.539c0,4.708,3.831,8.54,8.54,8.54s8.539-3.831,8.539-8.54
	C309.583,146.563,305.753,142.733,301.044,142.733z"/>
<path d="M210.956,97.126c-4.708,0-8.539,3.831-8.539,8.54s3.831,8.54,8.539,8.54s8.54-3.831,8.54-8.54
	S215.664,97.126,210.956,97.126z"/>
<path d="M301.044,97.126c-4.708,0-8.54,3.831-8.54,8.54s3.831,8.54,8.54,8.54s8.539-3.831,8.539-8.54S305.753,97.126,301.044,97.126
	z"/>
<path d="M212.645,52.082c-4.708,0-8.54,3.831-8.54,8.539s3.831,8.54,8.54,8.54s8.54-3.831,8.54-8.54S217.353,52.082,212.645,52.082z
	"/>
<path d="M299.355,69.162c4.708,0,8.54-3.831,8.54-8.54s-3.831-8.539-8.54-8.539c-4.709,0-8.54,3.831-8.54,8.539
	S294.647,69.162,299.355,69.162z"/>
<path d="M256,142.733c-4.708,0-8.54,3.831-8.54,8.539c0,4.708,3.831,8.54,8.54,8.54s8.54-3.831,8.54-8.54
	C264.54,146.563,260.708,142.733,256,142.733z"/>
<path d="M256,97.126c-4.708,0-8.54,3.831-8.54,8.54s3.831,8.54,8.54,8.54s8.54-3.831,8.54-8.54S260.708,97.126,256,97.126z"/>
<path d="M256,52.082c-4.708,0-8.54,3.831-8.54,8.539s3.831,8.54,8.54,8.54s8.54-3.831,8.54-8.54S260.708,52.082,256,52.082z"/>
<g>
</g>
<g>
</g>
<g>
</g>
<g>
</g>
<g>
</g>
<g>
</g>
<g>
</g>
<g>
</g>
<g>
</g>
<g>
</g>
<g>
</g>
<g>
</g>
<g>
</g>
<g>
</g>
<g>
</g>
</svg>
