<?xml version="1.0" encoding="iso-8859-1"?>
<!-- Generator: Adobe Illustrator 19.0.0, SVG Export Plug-In . SVG Version: 6.00 Build 0)  -->
<svg version="1.1" id="Layer_1" xmlns="http://www.w3.org/2000/svg" xmlns:xlink="http://www.w3.org/1999/xlink" x="0px" y="0px"
	 viewBox="0 0 512.001 512.001" style="enable-background:new 0 0 512.001 512.001;" xml:space="preserve">
<path style="fill:#F14742;" d="M140.081,429.071c-47.641,0-88.402,29.07-105.247,70.265h210.494
	C228.483,458.141,187.722,429.071,140.081,429.071z"/>
<circle style="fill:#FAD4C6;" cx="143.382" cy="325.774" r="74.669"/>
<path style="fill:#FFD24D;" d="M472.765,133.125c0-68.961-70.396-124.867-157.225-124.867c-86.836,0-157.225,55.906-157.225,124.866
	c0,61.609,56.183,112.794,130.083,123.007h-0.224c3.878,23.819-3.277,49.112-21.475,67.484c39.047,0,71.281-29.408,76.176-67.479
	h-0.224C416.56,245.932,472.765,194.743,472.765,133.125z"/>
<path d="M141.996,426.203c-48.762,0-92.101,29.218-110.412,74.437c-1.712,4.227,0.327,9.042,4.555,10.754
	c4.229,1.712,9.042-0.327,10.754-4.555c15.773-38.952,53.104-64.12,95.104-64.12s79.331,25.168,95.104,64.12
	c1.3,3.212,4.392,5.161,7.657,5.161c1.033,0,2.082-0.195,3.097-0.606c4.227-1.712,6.266-6.526,4.555-10.754
	C234.097,455.421,190.758,426.203,141.996,426.203z"/>
<path d="M431.849,38.365C400.699,13.625,359.392,0,315.54,0c-43.856,0-85.162,13.625-116.313,38.365
	c-31.709,25.184-49.171,58.837-49.171,94.76c0,63.228,54.558,117.14,130.665,130.175c1.556,20.121-5.664,40.142-19.891,54.503
	c-2.345,2.367-3.038,5.914-1.755,8.99c1.283,3.076,4.29,5.08,7.622,5.08c40.541,0,75.334-29.047,83.347-68.524
	c35.247-6.015,67.373-21.299,91.019-43.406c25.768-24.091,39.96-54.925,39.96-86.818C481.023,97.201,463.559,63.548,431.849,38.365z
	 M341.521,247.954c-4.3,0.595-7.407,4.415-7.11,8.747c0.004,0.063,0.01,0.127,0.015,0.189c-4.197,27.037-23.812,48.557-48.986,55.82
	c9.811-16.639,13.892-36.382,11.186-55.895c0.003-0.04,0.007-0.078,0.009-0.118c0.298-4.331-2.808-8.152-7.109-8.747
	c-71.246-9.847-122.955-58.139-122.955-114.827c0.001-64.297,66.827-116.608,148.968-116.608s148.967,52.311,148.967,116.609
	C464.507,189.823,412.784,238.116,341.521,247.954z"/>
<path d="M260.116,124.316c-4.857,0-8.809,3.952-8.809,8.809c0,4.857,3.952,8.809,8.809,8.809s8.809-3.952,8.809-8.809
	C268.925,128.268,264.973,124.316,260.116,124.316z"/>
<path d="M370.963,124.316c-4.857,0-8.809,3.952-8.809,8.809c0,4.857,3.952,8.809,8.809,8.809c4.857,0,8.809-3.952,8.809-8.809
	C379.772,128.268,375.82,124.316,370.963,124.316z"/>
<path d="M315.54,124.316c-4.857,0-8.809,3.952-8.809,8.809c0,4.857,3.952,8.809,8.809,8.809c4.857,0,8.809-3.952,8.809-8.809
	C324.348,128.268,320.397,124.316,315.54,124.316z"/>
<path d="M141.996,401.152c42.755,0,77.536-34.783,77.536-77.537s-34.783-77.536-77.536-77.536s-77.536,34.783-77.536,77.536
	S99.241,401.152,141.996,401.152z M141.996,262.594c33.648,0,61.02,27.374,61.02,61.02s-27.374,61.021-61.02,61.021
	s-61.02-27.374-61.02-61.021S108.348,262.594,141.996,262.594z"/>
<g>
</g>
<g>
</g>
<g>
</g>
<g>
</g>
<g>
</g>
<g>
</g>
<g>
</g>
<g>
</g>
<g>
</g>
<g>
</g>
<g>
</g>
<g>
</g>
<g>
</g>
<g>
</g>
<g>
</g>
</svg>
