<?xml version="1.0" encoding="iso-8859-1"?>
<!-- Generator: Adobe Illustrator 19.0.0, SVG Export Plug-In . SVG Version: 6.00 Build 0)  -->
<svg version="1.1" id="Layer_1" xmlns="http://www.w3.org/2000/svg" xmlns:xlink="http://www.w3.org/1999/xlink" x="0px" y="0px"
	 viewBox="0 0 295.996 295.996" style="enable-background:new 0 0 295.996 295.996;" xml:space="preserve">
<g>
	<path style="fill:#FFCE00;" d="M270.996,123.998c0-11.334-1.363-22.348-3.907-32.899c-7.269-15.153-17.35-28.709-29.558-39.997
		c-22.391-13.376-48.766-20.666-76.771-19.644C83.492,34.274,23.139,99.196,25.955,176.463c0.413,11.304,2.17,22.239,5.087,32.673
		c6.303,12.01,14.397,22.938,23.934,32.42c21.892,14.189,47.99,22.44,76.023,22.44C208.316,263.996,270.996,201.316,270.996,123.998
		z M197.665,99.998c8.836,0,16,7.164,16,16s-7.164,16-16,16s-16-7.164-16-16S188.829,99.998,197.665,99.998z M98.665,131.998
		c-8.836,0-16-7.164-16-16s7.164-16,16-16s16,7.164,16,16S107.501,131.998,98.665,131.998z M174.049,166.144
		c16.628-2.306,33.624,1.402,47.862,10.445l-8.578,13.506c-11.04-7.013-24.209-9.89-37.084-8.104
		c-20.722,2.879-38.321,17.584-44.835,37.464l-15.205-4.982C124.613,188.827,147.316,169.857,174.049,166.144z"/>
	<path style="fill:#FFB100;" d="M267.089,91.099c2.544,10.552,3.907,21.565,3.907,32.899c0,77.318-62.68,139.998-139.998,139.998
		c-28.032,0-54.131-8.251-76.023-22.44c23.88,23.744,56.766,38.44,93.023,38.44c72.784,0,131.998-59.214,131.998-131.998
		C279.996,127.636,275.358,108.337,267.089,91.099z"/>
	<path style="fill:#FFE454;" d="M160.76,31.457c28.006-1.021,54.381,6.268,76.771,19.644C213.985,29.328,182.521,16,147.998,16
		C75.214,16,16,75.214,16,147.998c0,22.05,5.442,42.849,15.042,61.138c-2.917-10.434-4.674-21.369-5.087-32.673
		C23.139,99.196,83.492,34.274,160.76,31.457z"/>
	<path d="M147.998,0C66.392,0,0,66.392,0,147.998s66.392,147.998,147.998,147.998s147.998-66.392,147.998-147.998
		S229.604,0,147.998,0z M147.998,279.996c-36.257,0-69.143-14.696-93.023-38.44c-9.536-9.482-17.631-20.41-23.934-32.42
		C21.442,190.847,16,170.048,16,147.998C16,75.214,75.214,16,147.998,16c34.523,0,65.987,13.328,89.533,35.102
		c12.208,11.288,22.289,24.844,29.558,39.997c8.27,17.238,12.907,36.537,12.907,56.899
		C279.996,220.782,220.782,279.996,147.998,279.996z"/>
	<path d="M176.249,181.991c12.875-1.786,26.044,1.091,37.084,8.104l8.578-13.506c-14.238-9.043-31.234-12.751-47.862-10.445
		c-26.732,3.714-49.436,22.684-57.84,48.329l15.205,4.982C137.928,199.575,155.527,184.87,176.249,181.991z"/>
	<circle cx="98.665" cy="115.998" r="16"/>
	<circle cx="197.665" cy="115.998" r="16"/>
</g>
<g>
</g>
<g>
</g>
<g>
</g>
<g>
</g>
<g>
</g>
<g>
</g>
<g>
</g>
<g>
</g>
<g>
</g>
<g>
</g>
<g>
</g>
<g>
</g>
<g>
</g>
<g>
</g>
<g>
</g>
</svg>
